<?xml version="1.0" encoding="utf-8"?>
<!-- Generator: Adobe Illustrator 25.3.1, SVG Export Plug-In . SVG Version: 6.00 Build 0)  -->
<svg version="1.1" id="Layer_1" xmlns="http://www.w3.org/2000/svg" xmlns:xlink="http://www.w3.org/1999/xlink" x="0px" y="0px"
	 viewBox="0 0 2048 2048" style="enable-background:new 0 0 2048 2048;" xml:space="preserve">
<style type="text/css">
	.st0{fill:#D7ECF4;}
	.st1{fill:#ACDFEF;}
	.st2{fill:#F2B668;}
	.st3{fill:#212121;}
	.st4{fill:#302C2D;}
	.st5{fill:#EBF3FF;}
	.st6{fill:#A0A0A0;}
	.st7{fill:#848484;}
	.st8{fill:#CCCCCC;}
	.st9{fill:#F6F6F6;}
	.st10{fill:#898989;}
	.st11{fill:#5F5F5F;}
	.st12{fill:#F7941D;}
	.st13{fill:#CE3641;}
	.st14{fill:#B52A3B;}
	.st15{fill:#E25061;}
	.st16{fill:#7F1D2E;}
	.st17{fill:#3F0B16;}
	.st18{fill:#6E6E6E;}
	.st19{fill:#F7E9C9;}
	.st20{fill:none;stroke:#6E6E6E;stroke-width:3;stroke-linecap:round;stroke-linejoin:round;stroke-miterlimit:10;}
	.st21{fill:#F4DC67;}
	.st22{fill:none;stroke:#5F5F5F;stroke-width:3;stroke-linecap:round;stroke-linejoin:round;stroke-miterlimit:10;}
	.st23{fill:#E5C19E;}
	.st24{fill:#F8DBBB;}
	.st25{fill:#ACC3EF;}
	.st26{fill:#6CA0EA;}
	.st27{fill:#331C1C;}
	.st28{fill:#1E1F60;}
	.st29{fill:#2A318B;}
	.st30{fill:#F4F4F4;}
	.st31{fill:#25313F;}
	.st32{fill:#D7E6FF;}
	.st33{fill:#5284C1;}
	.st34{fill:#88563D;}
	.st35{fill:#434757;}
</style>
<g>
	<g>
		<path class="st0" d="M1838.04,1367.92c-27.8,68.89-85.8,124.45-154.91,151.16c-80.93,31.28-176.12,27.33-261.44,31.87
			c-81.53,4.34-163.24,12.23-242.91,30.67c-91.41,21.16-177.09,53.2-271.2,64.37c-95.96,11.39-192.92,11.33-289.33,7.16
			c-43.98-1.9-88.03-4.32-131.83-8.74c-43.03-4.34-87.29-3.36-129.99-13.28c-101.45-23.58-158.5-109.13-176.35-207.77
			c-1.53-8.43-2.7-16.91-3.54-25.41c-7.07-71.59,10.02-144.68,47.16-206.4c48.54-80.61,123.66-143.39,206.01-187.43
			c34.3-18.34,70.51-34.07,101.43-58.04c28.22-21.88,48.38-53.62,63.23-85.93c30.85-67.13,36.74-142.51,65.32-210.47
			c37-88,111.24-157.44,197.05-199.29c147.49-71.94,347.26-85.3,489.09,6.63c49.34,31.98,90.83,76.55,118.07,128.75
			c26.38,50.56,30.81,107.03,81.96,141.51c30.36,20.46,67.86,25.84,100.85,40.8c32.07,14.54,62.07,33.6,89.06,56.2
			c32.59,27.29,60.84,59.8,83.17,95.98c23.22,37.61,29.78,70.51,38.67,112.45c0.84,3.93,1.63,7.87,2.4,11.83
			C1881.01,1152.25,1878.57,1267.47,1838.04,1367.92z"/>
		<path class="st1" d="M1838.04,1367.92c-27.8,68.89-85.8,124.45-154.91,151.16c-80.93,31.28-176.12,27.33-261.44,31.87
			c-102.17,5.45-204.8,16.55-302.58,46.68c-35.24,10.86-68.78,22.35-102.79,31.86c-34.44,9.12-69.36,16.43-106.73,19.67
			c-49.95,4.33-100.59,6.39-151.23,6.58c-42.63-0.15-85.18-1.74-127.2-4.51c-64.32-4.24-128.98-4.26-193.43-8.8
			c-40.05-2.83-80.74-7.43-118.66-21.3c-78.21-28.59-124.93-120.09-138.99-197.77c-1.53-8.43-2.7-16.91-3.54-25.41
			c31.07-5.14,60.99-16.61,86.89-33.64c36.31-23.89,64.2-57.54,101.15-80.61c40.56-25.33,99.23-38.02,146.98-43.53
			c42.98-4.97,81.7-44.32,119.58-64.6c91.48-48.98,191.92-81,292.85-107.57c93.65-24.66,188.88-46.59,285.47-55.57
			c134-12.45,270.68,1.52,398.75,40.79c35.98,11.03,71.88,24.16,109.62,26.63c35.02,2.3,69.98-4.95,102.16-17.76
			c6.42-2.56,23.8-9.28,40.04-17.55C1881.01,1152.25,1878.57,1267.47,1838.04,1367.92z"/>
	</g>
	<g>
		<path class="st2" d="M1688.52,1190.59c-8.95-24.6,4.02-52.73,26.42-65.17c24.88-13.82,57.23-5.79,77.63,12.41
			c44.7,39.87,33.66,110.23,3.14,154.74c-75.21,109.65-225.56,99.3-341.45,119.12c-15.8,2.7-31.74,5.76-47.12,10.31
			c-9.86,2.92-21.02,7.73-25.18,17.92c-4.1,10.07,0.89,20.85,8.96,27.29c10.57,8.44,24.48,8.09,37.15,5.92
			c26.15-4.48,58.32-11.33,72.82-36.09c12.59-21.48,3.48-44.31-17.62-55.49c-23.61-12.51-54.19-13.67-80.22-11.36
			c-28.21,2.5-58,10.49-82.11,25.77c-17.74,11.24-36.3,34.24-20.39,54.82c13.92,18.01,41.41,18.2,61.8,15.73
			c48.69-5.9,104.5-35.23,123.01-83.24c7.16-18.57,8.6-42.1-6.74-57.1c-18.68-18.27-45.75-11.53-68.12-5.56
			c-13.79,3.68-27.74,7.72-42.15,7.44c-13.43-0.26-26.51-4.06-38.65-9.63c-24.2-11.1-45.08-28.13-67.23-42.63
			c-24-15.71-49.66-26.64-77.94-31.87c-29.1-5.39-58.87-5.65-88.35-4.43c-63.84,2.63-128.01,7.43-191.47,14.93
			c-63.73,7.54-127.27,19.12-188.18,39.73c-42.98,14.54-106.8,35.94-114.29,88.57c-7.44,52.28,47.21,88.52,91.9,97.16
			c31.27,6.05,63.28,4.92,94.87,7.94c14.81,1.42,30.81,2.91,44.05,10.28c11.34,6.31,21.74,19.75,10.79,31.75
			c-8.35,9.15-22.87,10.81-34.42,12.47c-17.61,2.52-35.29,4.52-53.01,6.02c-34.14,2.9-68.45,3.93-102.7,3.1
			c-34.91-0.85-69.78-3.61-104.37-8.34c-27.85-3.81-57.55-7.3-83.24-19.48c-25.14-11.93-42.63-33.88-41.79-62.6
			c0.82-28.15,16.59-53.45,37.77-71.08c22.85-19.02,50.96-30.4,78.23-41.44c3.29-1.33,1.85-6.74-1.48-5.38
			c-47.8,19.35-102.71,43.4-117.18,98.12c-5.97,22.58-2.88,46.95,12.28,65.28c15.34,18.54,39.11,27.55,61.86,32.99
			c29.53,7.06,60.24,10.58,90.42,13.48c33.21,3.19,66.59,4.62,99.96,4.29c33.36-0.34,66.71-2.44,99.85-6.31
			c13.6-1.59,27.8-2.65,41.06-6.21c9.22-2.48,19.15-6.8,24.09-15.48c11.55-20.27-11.48-36.29-28.28-41.45
			c-28.81-8.85-61.11-6.96-90.87-8.96c-29.39-1.97-58.75-6.46-83.82-22.91c-21.2-13.92-40.31-36.29-41.02-62.8
			c-1.56-58.22,74.23-81.73,118.09-96.01c60.67-19.75,123.8-30.84,187.09-38.01c62.12-7.03,124.96-11.89,187.44-14.19
			c30.11-1.11,60.63-0.63,90.2,5.78c28.22,6.11,52.95,18.52,76.7,34.63c20.76,14.09,40.91,29.79,64.16,39.68
			c23.73,10.09,46.58,9.94,71.27,3.6c23.94-6.15,58.73-19.19,76.45,6.1c13.64,19.46,3.92,47.1-7.97,64.86
			c-15.31,22.85-40.88,39.94-66.01,50.22c-23.71,9.71-53.54,16.74-78.9,9.9c-11.65-3.14-23.51-10.26-25.31-23.23
			c-2.12-15.17,10.85-27.56,22.44-35.11c25.3-16.48,57.6-24.55,87.48-26.1c25.67-1.33,59.95-0.14,80.28,18.03
			c11.12,9.94,13.5,24.86,6.95,38.15c-7,14.19-20.72,22.53-35.23,27.52c-14.09,4.85-30.39,9.23-45.31,9.89
			c-8.48,0.38-17.22-1.07-23.72-6.92c-6.4-5.76-9.83-15.01-4.67-22.76c7.55-11.33,26.21-13.65,38.33-16.41
			c16.48-3.75,33.15-6.6,49.88-8.97c111.35-15.74,248.13-13.52,321.27-114.99c29.14-40.43,41.7-97.14,16.13-142.58
			c-12.05-21.42-32.88-37.44-57.23-41.97c-22.6-4.21-46.05,2.13-61.36,19.78c-13.71,15.8-19.8,38-12.52,58.04
			C1684.35,1195.42,1689.75,1193.98,1688.52,1190.59L1688.52,1190.59z"/>
	</g>
	<g>
		<path class="st3" d="M1613.04,1089.99c-1.49-11.89-4.33-23.54-9.05-34.58c-2.04-4.79-4.68-9.7-9.23-12.23
			c-5.44-3.01-12.51-1.73-17.67,1.77c-5.15,3.49-8.75,8.84-11.82,14.27c-12.28,21.67-18.28,46.36-24.86,70.66
			c-6.21,23.17-12.9,45.97-25.88,65.48c27.39-16.17,54.72-32.35,82.07-48.53c5.46-3.23,10.94-6.48,16.43-9.74
			c0.04-0.45,0.09-0.87,0.13-1.32C1614.62,1120.59,1614.94,1105.09,1613.04,1089.99z"/>
		<path class="st3" d="M1246.05,1269.53c-0.19-2.64-0.41-5.28-0.69-7.92c-1.65-16.65-5.04-33.2-12.86-47.9
			c-9.07-17.02-24.99-31.29-44.06-34.24c-6.65-1.02-13.19-0.67-19.55,0.76c-19.62,4.44-37.37,19.25-50.5,35.38
			c-28.11,34.5-44.02,76.14-57.12,119.09c-7.25,23.67-13.62,47.72-20.74,71.16c-5.54,18.26-11.71,36.53-21.55,52.86
			c-1.26,2.08-2.58,4.14-3.98,6.15c35.9-10.85,69.77-28.13,103.09-45.63c42.81-22.5,85.32-45.56,127.6-69.05
			C1246.87,1323.31,1247.98,1296.36,1246.05,1269.53z"/>
		<g>
			<path class="st3" d="M1613.04,1089.99c1.9,15.11,1.58,30.6,0.11,45.78c-0.04,0.45-0.09,0.87-0.13,1.32
				c-5.48,3.25-10.96,6.5-16.43,9.74c-27.35,16.18-54.68,32.37-82.07,48.53c12.99-19.51,19.68-42.31,25.88-65.48
				C1565.14,1117.41,1589.44,1104.22,1613.04,1089.99z"/>
		</g>
		<g>
			<path class="st3" d="M1603.99,1055.41c4.72,11.04,7.56,22.69,9.05,34.58c-23.6,14.23-47.9,27.43-72.63,39.89
				c6.58-24.3,12.58-49,24.86-70.66c3.07-5.43,6.67-10.78,11.82-14.27c5.17-3.49,12.23-4.78,17.67-1.77
				C1599.31,1045.71,1601.95,1050.61,1603.99,1055.41z"/>
		</g>
		<g>
			<path class="st3" d="M1246.05,1269.53c1.93,26.83,0.82,53.77-0.35,80.66c-42.27,23.49-84.78,46.55-127.6,69.05
				c-33.32,17.5-67.19,34.78-103.09,45.63c1.39-2.01,2.71-4.07,3.98-6.15c9.85-16.33,16.02-34.6,21.55-52.86
				c7.12-23.45,13.49-47.49,20.74-71.16c40.43-12.95,79.94-29.25,119.14-45.67c21.67-9.07,43.31-18.21,64.94-27.41
				C1245.64,1264.26,1245.86,1266.89,1246.05,1269.53z"/>
		</g>
		<g>
			<path class="st3" d="M1168.9,1180.23c6.35-1.43,12.9-1.78,19.55-0.76c19.06,2.95,34.99,17.22,44.06,34.24
				c7.82,14.7,11.2,31.25,12.86,47.9c-21.63,9.2-43.27,18.34-64.94,27.41c-39.21,16.43-78.71,32.72-119.14,45.67
				c13.1-42.94,29-84.58,57.12-119.08C1131.53,1199.48,1149.28,1184.67,1168.9,1180.23z"/>
		</g>
		<g>
			<g>
				<path class="st3" d="M1578.83,1064.52c-0.2,0.01-0.4,0.04-0.6,0.06c-0.2,0-0.4-0.01-0.6,0c-0.2,0.01-0.4,0.04-0.6,0.06
					c-0.2,0-0.4-0.01-0.6,0c-0.2,0.01-0.4,0.04-0.6,0.06c-0.2,0-0.4-0.01-0.59,0c-0.2,0.01-0.4,0.04-0.6,0.06
					c-0.2,0-0.39-0.01-0.59,0c-0.2,0.01-0.4,0.04-0.59,0.06c-0.2,0-0.39-0.01-0.59,0c-0.2,0.01-0.4,0.04-0.59,0.06
					c-0.2,0-0.39-0.01-0.59,0s-0.39,0.04-0.59,0.06c-0.2,0-0.39-0.01-0.59,0c-0.2,0.01-0.39,0.04-0.59,0.06c-0.2,0-0.39-0.01-0.59,0
					c-0.2,0.01-0.39,0.04-0.59,0.06c-0.2,0-0.39-0.01-0.59-0.01c-0.2,0.01-0.39,0.04-0.59,0.06c-0.2,0-0.39-0.01-0.58-0.01
					c-0.2,0.01-0.39,0.04-0.59,0.06c-0.19,0-0.39-0.01-0.58-0.01c-0.2,0.01-0.39,0.04-0.58,0.06c-0.19,0-0.39-0.01-0.58-0.01
					c-0.2,0.01-0.39,0.04-0.58,0.06c-0.19,0-0.39-0.01-0.58-0.01s-0.39,0.04-0.58,0.06c-0.19,0-0.38-0.01-0.58-0.01
					s-0.39,0.04-0.58,0.06c-0.19,0-0.38-0.01-0.58-0.01c-0.19,0.01-0.39,0.04-0.58,0.06c-0.19,0-0.38-0.01-0.58-0.01
					c-0.19,0.01-0.38,0.04-0.58,0.06c-0.19,0-0.38-0.01-0.57-0.01c-0.19,0.01-0.38,0.04-0.58,0.06c-0.19,0-0.38-0.01-0.57-0.01
					s-0.38,0.04-0.57,0.06c-0.19,0-0.38-0.01-0.57-0.01s-0.38,0.04-0.57,0.06c-0.19,0-0.38-0.01-0.57-0.01
					c-0.19,0.01-0.38,0.04-0.57,0.06c-0.19,0-0.38-0.01-0.57-0.01c-0.19,0.01-0.38,0.04-0.57,0.06c-0.19,0-0.38-0.01-0.57-0.01
					c-0.19,0.01-0.38,0.04-0.57,0.06c-0.19,0-0.38-0.01-0.57-0.01c-0.19,0.01-0.38,0.04-0.57,0.06c-0.19,0-0.38-0.01-0.57-0.01
					c-0.19,0.01-0.38,0.04-0.57,0.06c-0.19,0-0.37-0.01-0.56-0.01c-0.19,0.01-0.38,0.04-0.57,0.06c-0.19,0-0.37-0.01-0.56-0.01
					c-0.19,0.01-0.38,0.04-0.56,0.06c-0.19,0-0.37-0.01-0.56-0.01s-0.38,0.04-0.56,0.06c-0.19,0-0.37-0.01-0.56-0.01
					c-0.19,0.01-0.37,0.04-0.56,0.06c-0.19,0-0.37-0.01-0.56-0.01s-0.37,0.04-0.56,0.06c-0.19,0-0.37-0.01-0.56-0.01
					c-0.19,0.01-0.37,0.04-0.56,0.06c-0.19,0-0.37-0.01-0.56-0.01c-16.66,0.78-31.01,31.52-32.6,69.22
					c-1.61,38.31,10.45,71.24,27.52,73.04c0.19,0.02,0.38,0.01,0.57,0.03c0.19,0.03,0.38,0.07,0.57,0.09
					c0.19,0.02,0.38,0.01,0.57,0.03c0.19,0.03,0.38,0.07,0.57,0.09c0.19,0.02,0.38,0.01,0.57,0.03c0.19,0.03,0.38,0.07,0.57,0.09
					c0.19,0.02,0.38,0.01,0.58,0.03c0.19,0.03,0.38,0.07,0.57,0.09c0.19,0.02,0.38,0.01,0.58,0.03c0.19,0.03,0.38,0.07,0.58,0.09
					c0.19,0.02,0.39,0.01,0.58,0.03c0.19,0.03,0.38,0.07,0.58,0.09c0.19,0.02,0.39,0.01,0.58,0.03c0.19,0.03,0.38,0.07,0.58,0.09
					s0.39,0.01,0.58,0.03c0.19,0.03,0.39,0.07,0.58,0.1c0.2,0.02,0.39,0.01,0.58,0.03c0.19,0.03,0.39,0.07,0.58,0.1
					c0.2,0.02,0.39,0.01,0.58,0.03c0.19,0.03,0.39,0.07,0.58,0.1c0.2,0.02,0.39,0.02,0.59,0.03c0.2,0.03,0.39,0.08,0.58,0.1
					c0.2,0.02,0.39,0.02,0.59,0.03c0.2,0.03,0.39,0.08,0.59,0.1c0.2,0.02,0.39,0.02,0.59,0.03c0.2,0.03,0.39,0.08,0.59,0.1
					c0.2,0.02,0.39,0.02,0.59,0.03c0.2,0.03,0.39,0.08,0.59,0.1c0.2,0.02,0.39,0.02,0.59,0.03c0.2,0.03,0.39,0.08,0.59,0.1
					c0.2,0.02,0.4,0.02,0.59,0.03c0.2,0.03,0.39,0.08,0.59,0.1c0.2,0.02,0.4,0.02,0.59,0.03c0.2,0.03,0.39,0.08,0.59,0.1
					s0.4,0.02,0.6,0.03c0.2,0.03,0.4,0.08,0.59,0.1c0.2,0.02,0.4,0.02,0.6,0.03c0.2,0.03,0.4,0.08,0.6,0.1
					c0.2,0.02,0.4,0.02,0.6,0.03c0.2,0.03,0.4,0.08,0.6,0.1c0.2,0.02,0.4,0.02,0.6,0.03c0.2,0.03,0.4,0.08,0.6,0.1
					c0.2,0.02,0.4,0.02,0.6,0.03c0.2,0.03,0.4,0.08,0.6,0.1c0.2,0.02,0.4,0.02,0.6,0.03c0.2,0.03,0.4,0.08,0.6,0.1
					s0.4,0.02,0.61,0.03c0.2,0.03,0.4,0.08,0.6,0.1c0.2,0.02,0.4,0.02,0.61,0.03c0.2,0.03,0.4,0.08,0.61,0.1
					c0.2,0.02,0.41,0.02,0.61,0.03c0.2,0.03,0.4,0.08,0.61,0.1c0.2,0.02,0.41,0.02,0.61,0.03c0.2,0.03,0.4,0.08,0.61,0.1
					c0.2,0.02,0.41,0.02,0.61,0.03c0.2,0.03,0.41,0.08,0.61,0.1c0.21,0.02,0.41,0.02,0.61,0.03c0.2,0.03,0.41,0.08,0.61,0.1
					c0.21,0.02,0.41,0.02,0.61,0.03c0.2,0.03,0.41,0.08,0.61,0.1s0.41,0.02,0.62,0.03c0.21,0.03,0.41,0.08,0.61,0.1
					c19.16,2.02,35.98-31.43,36.86-74.08C1612.42,1096.34,1597.47,1063.65,1578.83,1064.52z"/>
			</g>
			<g>
				<path class="st4" d="M1611.55,1138.25c-0.88,42.66-17.71,76.1-36.86,74.08c-18.43-1.94-31.72-36.2-30.33-75.96
					c1.36-39.11,16.53-71.01,34.48-71.85C1597.47,1063.65,1612.42,1096.34,1611.55,1138.25z"/>
			</g>
			<g>
				<g>
					<path class="st5" d="M1605.69,1135.89c-0.04,1.8-0.11,3.59-0.22,5.35c-0.86,14.14-3.87,26.94-8.26,36.76
						c-0.8,1.8-1.66,3.51-2.55,5.09c-4.7,8.36-10.54,13.64-16.81,14.4c-0.67,0.08-1.35,0.11-2.03,0.09
						c-0.49-0.02-0.97-0.06-1.44-0.13c-6.23-0.92-11.78-6.32-16.05-14.73c-0.81-1.61-1.58-3.32-2.29-5.13
						c-3.89-9.85-6.26-22.61-6.47-36.62c-0.03-2.18-0.01-4.4,0.06-6.64l0-0.12c0.52-14.85,3.38-28.32,7.71-38.7
						c0.65-1.55,1.32-3.03,2.04-4.44c4.93-9.79,11.33-16.02,18.24-16.75c0.55-0.06,1.1-0.08,1.65-0.07
						c0.35,0.01,0.69,0.03,1.03,0.07c6.91,0.69,13.05,6.9,17.57,16.7c0.65,1.4,1.27,2.89,1.85,4.44c3.91,10.47,6.18,24.07,6.01,39
						C1605.71,1134.93,1605.7,1135.41,1605.69,1135.89z"/>
				</g>
				<g>
					<path class="st3" d="M1602.09,1135.79c-0.04,1.57-0.1,3.13-0.2,4.67c-0.76,12.32-3.39,23.47-7.21,32.01
						c-0.7,1.57-1.44,3.05-2.22,4.43c-4.09,7.27-9.18,11.87-14.64,12.53c-0.58,0.07-1.17,0.1-1.77,0.08
						c-0.42-0.01-0.84-0.05-1.26-0.11c-5.43-0.8-10.27-5.49-13.99-12.8c-0.71-1.4-1.38-2.89-2-4.47c-3.4-8.57-5.48-19.69-5.66-31.91
						c-0.03-1.9-0.02-3.83,0.05-5.79l0-0.11c0.44-12.97,2.93-24.73,6.71-33.81c0.56-1.36,1.16-2.65,1.78-3.88
						c4.31-8.56,9.89-14.01,15.93-14.64c0.48-0.05,0.96-0.07,1.44-0.06c0.3,0.01,0.6,0.03,0.9,0.06c6.04,0.61,11.4,6.05,15.33,14.62
						c0.57,1.23,1.1,2.52,1.61,3.88c3.41,9.15,5.38,21.02,5.22,34.05C1602.11,1134.96,1602.1,1135.37,1602.09,1135.79z"/>
				</g>
				<g>
					<path class="st5" d="M1601.89,1140.46l-15.68,5.05l8.46,26.96c-0.7,1.57-1.44,3.05-2.22,4.43l-11.71-19.91l-2.93,32.44
						c-0.58,0.07-1.17,0.1-1.77,0.08c-0.42-0.01-0.84-0.05-1.26-0.11l-1.43-32.46l-12.56,19.66c-0.71-1.4-1.38-2.89-2-4.47
						l9.63-26.72l-15.3-5.19c-0.03-1.9-0.02-3.83,0.05-5.79l0-0.11l15.65-5.06l-8.94-28.75c0.56-1.36,1.16-2.65,1.78-3.88
						l12.62,21.28l3.32-35.92c0.48-0.05,0.96-0.07,1.44-0.06c0.3,0.01,0.6,0.03,0.9,0.06l1.66,35.94l13.67-21.32
						c0.57,1.23,1.1,2.52,1.61,3.88l-10.34,28.83l15.55,5.21c0,0.42-0.01,0.83-0.02,1.25
						C1602.05,1137.36,1601.99,1138.92,1601.89,1140.46z"/>
				</g>
			</g>
		</g>
		<g>
			<g>
				<path class="st3" d="M1165.01,1211.2c-0.5-0.01-1,0.04-1.5,0.04c-0.5-0.03-0.99-0.11-1.49-0.12c-0.5-0.01-1,0.04-1.5,0.04
					c-0.5-0.03-0.99-0.11-1.49-0.12c-0.5-0.01-1,0.04-1.5,0.04c-0.5-0.03-0.99-0.11-1.49-0.12s-1,0.04-1.5,0.04
					c-0.5-0.03-0.99-0.11-1.49-0.12c-0.5-0.01-1,0.04-1.5,0.04c-0.5-0.03-0.99-0.11-1.49-0.12s-1,0.04-1.5,0.04
					c-0.5-0.03-0.99-0.11-1.49-0.12s-1,0.04-1.5,0.04c-0.5-0.03-0.99-0.11-1.49-0.12c-0.5-0.01-1,0.04-1.5,0.04
					c-0.5-0.03-0.99-0.11-1.49-0.12c-0.5-0.01-1,0.04-1.5,0.04c-0.5-0.03-0.99-0.11-1.49-0.12c-0.5-0.01-1,0.04-1.5,0.04
					c-0.5-0.03-0.99-0.11-1.49-0.12c-0.5-0.01-1,0.04-1.5,0.04c-0.5-0.03-0.99-0.11-1.49-0.12c-0.5-0.01-1,0.04-1.5,0.04
					c-0.5-0.03-0.99-0.11-1.49-0.12s-1,0.04-1.5,0.04c-0.5-0.03-0.99-0.11-1.49-0.12c-0.5-0.01-1,0.04-1.5,0.04
					c-0.5-0.03-0.99-0.11-1.49-0.12s-1,0.04-1.5,0.04c-0.5-0.03-0.99-0.11-1.49-0.12c-0.5-0.01-1,0.04-1.5,0.04
					c-0.5-0.03-0.99-0.11-1.49-0.12c-0.5-0.01-1,0.04-1.5,0.04c-0.5-0.03-0.99-0.11-1.49-0.12c-0.5-0.01-1,0.04-1.5,0.04
					c-0.5-0.03-0.99-0.11-1.49-0.12c-0.5-0.01-1,0.04-1.5,0.04c-0.5-0.03-0.99-0.11-1.49-0.12c-0.5-0.01-1,0.04-1.5,0.04
					c-0.5-0.03-0.99-0.11-1.49-0.12c-0.5-0.01-1,0.04-1.5,0.04c-0.5-0.03-0.99-0.11-1.49-0.12c-0.5-0.01-1,0.04-1.5,0.04
					c-0.5-0.03-0.99-0.11-1.49-0.12s-1,0.04-1.49,0.04c-0.5-0.03-0.99-0.11-1.49-0.12c-0.5-0.01-1,0.04-1.49,0.04
					c-0.5-0.03-0.99-0.11-1.49-0.12c-0.5-0.01-1,0.04-1.49,0.04c-0.5-0.03-0.99-0.11-1.49-0.12c-0.5-0.01-1,0.04-1.49,0.04
					c-0.5-0.03-0.99-0.11-1.49-0.12c-0.5-0.01-0.99,0.04-1.49,0.04c-0.5-0.03-0.99-0.11-1.49-0.12c-0.5-0.01-0.99,0.04-1.49,0.04
					c-0.5-0.03-0.99-0.11-1.49-0.12c-0.5-0.01-0.99,0.04-1.49,0.04c-0.5-0.03-0.99-0.11-1.49-0.12c-0.5-0.01-0.99,0.04-1.49,0.04
					c-0.5-0.03-0.99-0.11-1.49-0.12c-0.5-0.01-0.99,0.04-1.49,0.04c-0.5-0.03-0.99-0.11-1.49-0.12
					c-45.4-1.22-79.69,75.84-76.91,164.36c2.54,80.98,35.71,142.81,74.33,144.14c0.43,0.01,0.85-0.02,1.27-0.02
					c0.42,0.03,0.84,0.09,1.27,0.1c0.43,0.01,0.85-0.02,1.27-0.02c0.42,0.03,0.84,0.09,1.27,0.1c0.43,0.01,0.85-0.02,1.27-0.02
					c0.42,0.03,0.84,0.09,1.27,0.1c0.43,0.01,0.85-0.02,1.27-0.02c0.42,0.03,0.84,0.09,1.27,0.1c0.43,0.01,0.85-0.02,1.27-0.02
					c0.42,0.03,0.84,0.09,1.27,0.1c0.43,0.01,0.85-0.02,1.27-0.02c0.42,0.03,0.84,0.09,1.27,0.1s0.85-0.02,1.27-0.02
					c0.42,0.03,0.84,0.09,1.27,0.1c0.43,0.01,0.85-0.02,1.27-0.02c0.42,0.03,0.84,0.09,1.27,0.1c0.43,0.01,0.85-0.02,1.27-0.02
					c0.42,0.03,0.84,0.09,1.27,0.1c0.43,0.01,0.85-0.02,1.27-0.02c0.42,0.03,0.84,0.09,1.27,0.1c0.43,0.01,0.85-0.02,1.27-0.02
					c0.42,0.03,0.84,0.09,1.27,0.1c0.43,0.01,0.85-0.02,1.27-0.02c0.42,0.03,0.84,0.09,1.27,0.1c0.43,0.01,0.85-0.02,1.27-0.02
					c0.42,0.03,0.84,0.09,1.27,0.1c0.43,0.01,0.85-0.02,1.27-0.02c0.42,0.03,0.84,0.09,1.27,0.1c0.43,0.01,0.85-0.02,1.27-0.02
					c0.42,0.03,0.84,0.09,1.27,0.1c0.43,0.01,0.85-0.02,1.27-0.02c0.42,0.03,0.84,0.09,1.27,0.1s0.85-0.02,1.27-0.02
					c0.42,0.03,0.84,0.09,1.27,0.1c0.43,0.01,0.85-0.02,1.27-0.02c0.42,0.03,0.84,0.09,1.27,0.1c0.43,0.01,0.85-0.02,1.27-0.02
					c0.42,0.03,0.84,0.09,1.27,0.1c0.43,0.01,0.85-0.02,1.27-0.02c0.42,0.03,0.84,0.09,1.27,0.1c0.43,0.01,0.85-0.02,1.27-0.02
					c0.42,0.03,0.84,0.09,1.27,0.1c0.43,0.01,0.85-0.02,1.27-0.02c0.42,0.03,0.84,0.09,1.27,0.1c0.43,0.01,0.85-0.02,1.27-0.02
					c0.42,0.03,0.84,0.09,1.27,0.1c0.43,0.01,0.85-0.02,1.27-0.02c0.42,0.03,0.84,0.09,1.27,0.1c0.43,0.01,0.85-0.02,1.27-0.02
					c0.42,0.03,0.84,0.09,1.27,0.1c0.43,0.01,0.85-0.02,1.28-0.02c0.42,0.03,0.84,0.09,1.27,0.1c0.43,0.01,0.85-0.02,1.28-0.02
					c0.42,0.03,0.84,0.09,1.27,0.1c0.43,0.01,0.85-0.02,1.28-0.02c0.42,0.03,0.84,0.09,1.27,0.1c0.43,0.01,0.85-0.02,1.28-0.02
					c0.42,0.03,0.84,0.09,1.27,0.1c0.43,0.01,0.85-0.02,1.28-0.02c0.42,0.03,0.84,0.09,1.27,0.1c0.43,0.01,0.85-0.02,1.28-0.02
					c0.42,0.03,0.84,0.09,1.27,0.1c38.84,1.34,76.08-58.4,83.67-139.51C1240.52,1291.69,1210.71,1212.43,1165.01,1211.2z"/>
			</g>
			<g>
				<path class="st4" d="M1232.22,1380.41c-7.59,81.11-44.82,140.85-83.67,139.51c-38.77-1.34-69.34-63.19-68.27-144.22
					c1.18-88.59,39.11-165.73,84.72-164.5C1210.71,1212.43,1240.52,1291.69,1232.22,1380.41z"/>
			</g>
			<g>
				<g>
					<path class="st5" d="M1220.03,1375.59c-0.32,3.65-0.71,7.24-1.16,10.78c-3.57,27.8-11.32,52.24-21.45,70.67
						c-1.83,3.35-3.76,6.52-5.75,9.46c-10.39,15.4-22.84,25.27-35.96,27.17c-1.41,0.21-2.83,0.32-4.26,0.34
						c-1.02,0.01-2.03-0.02-3.03-0.11c-13.2-1.09-25.08-10.41-34.44-25.64c-1.82-2.96-3.54-6.15-5.16-9.54
						c-8.98-18.81-14.85-44.17-15.85-73.17c-0.17-4.61-0.2-9.33-0.11-14.13l0.01-0.27c0.68-32.55,7.26-63.02,17.79-86.98
						c1.59-3.62,3.27-7.08,5.03-10.37c12.36-23.13,28.51-37.56,45.69-38.28c1.35-0.06,2.71-0.03,4.06,0.08
						c0.85,0.07,1.69,0.18,2.53,0.33c16.77,2.77,30.81,18.64,40.23,42.14c1.33,3.29,2.57,6.76,3.7,10.36
						c7.51,23.76,10.73,53.23,8.37,84.22C1220.2,1373.65,1220.12,1374.61,1220.03,1375.59z"/>
				</g>
				<g>
					<path class="st3" d="M1212.27,1375.34c-0.26,3.19-0.59,6.34-0.98,9.44c-3.04,24.4-9.78,45.92-18.64,62.16
						c-1.61,2.96-3.29,5.75-5.04,8.35c-9.13,13.6-20.07,22.3-31.62,23.92c-1.24,0.18-2.49,0.27-3.75,0.28
						c-0.9,0.01-1.78-0.03-2.66-0.11c-11.59-1.03-21.99-9.33-30.15-22.83c-1.58-2.62-3.07-5.43-4.48-8.43
						c-7.78-16.57-12.79-38.81-13.54-64.12c-0.13-4.02-0.14-8.12-0.04-12.29l0.01-0.23c0.72-28.23,6.52-54.57,15.68-75.22
						c1.39-3.12,2.84-6.1,4.37-8.93c10.71-19.89,24.66-32.31,39.5-33.02c1.16-0.06,2.34-0.04,3.51,0.05
						c0.74,0.06,1.46,0.15,2.19,0.27c14.52,2.28,26.72,15.83,34.98,36.03c1.17,2.84,2.26,5.82,3.25,8.93
						c6.64,20.54,9.56,46.15,7.61,73.2C1212.4,1373.64,1212.34,1374.48,1212.27,1375.34z"/>
				</g>
				<g>
					<path class="st5" d="M1211.29,1384.78l-34.63,10.15l15.98,52.01c-1.61,2.96-3.29,5.75-5.04,8.35l-23.7-37.45l-7.92,61.37
						c-1.24,0.18-2.49,0.27-3.75,0.28c-0.9,0.01-1.78-0.03-2.66-0.11l-1.96-61.46l-28.19,38.63c-1.58-2.62-3.07-5.43-4.48-8.43
						l21.92-53.32l-35.46-10.8c-0.13-4.02-0.14-8.12-0.04-12.29l0.01-0.23l36.78-10.45l-21.1-64.77c1.39-3.12,2.84-6.1,4.37-8.93
						l29.81,49.35l9.69-82.38c1.16-0.06,2.34-0.04,3.51,0.05c0.74,0.06,1.46,0.15,2.19,0.27l1.59,82.48l33.39-46.45
						c1.17,2.84,2.26,5.82,3.25,8.93l-26.21,62.06l33.82,11.14c-0.06,0.85-0.12,1.69-0.19,2.55
						C1212,1378.53,1211.67,1381.68,1211.29,1384.78z"/>
				</g>
			</g>
		</g>
		<g>
			<path class="st6" d="M1628.39,1000.24c2.43,24.1,0.3,48.4-1.84,72.52c-0.28,3.14-0.56,6.3-0.84,9.44
				c-4.2,2.64-8.42,5.24-12.67,7.79c-1.49-11.89-4.33-23.54-9.05-34.58c-2.04-4.79-4.68-9.7-9.23-12.23
				c-5.44-3.01-12.51-1.73-17.67,1.77c-5.15,3.49-8.75,8.84-11.82,14.27c-12.28,21.67-18.28,46.36-24.86,70.66
				c-11.22,5.7-22.54,11.22-33.91,16.65c4.33-35.56,6.35-71.39,5.78-107.23c-0.07-5.85-0.26-11.78-1.19-17.54
				c-0.39-2.43-0.61-2.64-1.07-4c37.09-15.63,74.73-32.46,110.14-51.15C1624.67,977.18,1627.25,988.92,1628.39,1000.24z"/>
		</g>
		<g>
			<path class="st7" d="M1625.71,1082.2c-1.08,12.23-2.16,24.43-3.23,36.68c-0.41,4.53-1.13,9.46-2.49,14.01
				c-2.32,1.41-4.65,2.79-6.97,4.2c0.04-0.45,0.09-0.87,0.13-1.32c1.47-15.18,1.78-30.68-0.11-45.78
				C1617.29,1087.44,1621.51,1084.84,1625.71,1082.2z"/>
		</g>
		<g>
			<path class="st8" d="M1207.16,1046.84c0-0.02,0-0.06-0.02-0.07c4.44-2.03,8.88-4.07,13.32-6.09l0.71,0.67c0.37,0,0.74,0,1.11,0
				c-1.97-3.81-3.96-7.62-5.98-11.39c10.89,0.76,21.78,1.56,32.68,2.34c1.84,0.13,3.73,0.24,5.5-0.33c4.7-1.56,6.39-7.21,7.47-12.04
				c10.83-48.9,28.54-96.25,52.42-140.27c-66.91-6.43-134.08-10.16-201.29-11.13c-7.08-9.68-14.27-19.29-21.52-28.86
				c67.86-13.6,139.23-11.04,208.92-8.23c63.96,2.56,131.35,6.17,185.18,40.79c28.54,18.34,52.42,44.97,84.52,55.89
				c6.99,2.38,14.27,3.98,20.92,7.15c13.23,6.34,22.24,18.04,28.04,31.68c-35.42,18.69-72.06,35.19-109.14,50.82
				c-0.26-0.78-0.67-1.51-1.24-2.12c-0.04-0.04-0.07-0.07-0.11-0.09c-0.28-1-0.59-2.01-0.95-2.99c-2.73-7.69-7.53-14.46-11.65-21.5
				c-8.51-14.57-14.27-30.75-16.95-47.42c-2.49-15.4-6.15-29.86-9.98-45.11c-2.66-10.59-5.76-21.76-13.69-29.25
				c-8.31-7.82-20.27-10.09-31.61-11.45c-33.22-3.99-70.42-1.69-94.82,21.22c-16.3,15.29-24.19,37.31-30.47,58.75
				c-8.75,29.84-15.48,60.28-20.1,91.03c-0.3,1.93-0.58,3.9-0.17,5.82c1.04,4.7,5.82,7.4,9.81,10.11
				c12.97,8.81,21.33,23.19,25.85,38.2c1.45,4.81,2.53,9.72,3.38,14.68c-52.27,23.6-102.83,49.96-149.41,82.93
				c-19.62,4.44-37.37,19.25-50.5,35.38c-28.11,34.5-44.02,76.14-57.12,119.08c-24.04,7.69-48.42,14.23-73.26,18.9
				c-50.13,9.42-101.43,11.15-152.44,10.28c-125.44-2.12-250.62-19.79-371.77-52.47c-38.13-10.29-76.96-22.69-109.68-44.17
				c-0.3-2.27-0.59-4.52-0.87-6.76c-0.78-6-1.51-12.28,0.54-17.99c2.42-6.73,8.27-11.54,13.84-15.98
				c6.84-5.43,13.66-10.85,20.48-16.28c3.14-2.51,6.43-5.24,7.58-9.07c0.89-2.97,0.33-6.15-0.22-9.2
				c-1.78-9.83-3.57-19.66-5.35-29.49c-1.28-7.14-2.56-14.64-0.19-21.5c2.14-6.17,6.95-11,11.84-15.33
				c33.35-29.71,75.55-47.38,117.56-62.56c71.98-26.01,146.06-46.29,221.26-60.56c1.73,3.53,3.38,7.1,4.98,10.7
				c-21.42,1.67-42.66,6.86-63.62,12c-92.42,22.72-188.19,47.08-261.88,107.29c-2.4,1.97-5.02,4.53-4.61,7.62
				c0.45,3.46,4.33,5.18,7.64,6.24c19.79,6.37,39.76,12.06,59.92,17.06c69.55,17.26,140.82,26.27,211.92,35.27
				c48.74,6.17,97.48,12.34,146.21,18.45c9.51,1.21,19.29,2.4,28.61,0.11c14.96-3.64,26.25-15.44,38.15-25.21
				c22.72-18.69,49.8-31.12,76.55-43.35c74.55-34.08,149.06-68.15,223.6-102.23C1207.11,1046.82,1207.13,1046.84,1207.16,1046.84z
				 M1547.51,941.36c-3.62-0.19-6.43-3.08-8.86-5.76c-5.89-6.54-11.78-13.06-17.67-19.58c-7.08-7.86-28.89-34.84-35.66-14.12
				c-5.52,16.91,5.93,41.55,11.26,57.38c0.28,0.84,0.63,1.75,1.43,2.14c0.76,0.35,1.65,0.09,2.43-0.17
				C1516.61,955.83,1532.35,949.18,1547.51,941.36z M755.24,1305.41c1.24-1.58,1.21-3.77,1.08-5.76
				c-0.95-15.87-2.92-31.68-5.85-47.31c-1.65-8.77-2.79-31.62-10-37.77c-6.78-5.8-27.67-2.9-36.46-3.53
				c-14.51-1.06-28.97-2.47-43.4-4.18c-28.08-3.31-56.02-7.75-83.84-12.8c-54.96-10.02-109.42-22.48-164.09-33.95
				c-1.56-0.32-3.27-0.63-4.66,0.13c-1.28,0.67-1.99,2.08-2.56,3.44c-6.8,16.24-4.61,34.67-2.3,52.12
				c0.65,4.83,1.32,9.79,3.73,14.03c2.51,4.39,6.63,7.56,10.76,10.48c14.05,9.9,29.38,18.02,45.49,24.1
				c22.09,8.32,45.43,12.71,68.64,17.08c71.65,13.47,143.85,27,216.73,26.09C750.95,1307.53,753.73,1307.32,755.24,1305.41z"/>
		</g>
		<g>
			<path class="st9" d="M1539.65,935.26c2.43,2.68,5.24,5.57,8.86,5.76c-15.16,7.82-30.9,14.47-47.07,19.88
				c-0.78,0.26-1.67,0.52-2.43,0.17c-0.8-0.39-1.15-1.3-1.43-2.14c-5.33-15.83-16.78-40.47-11.26-57.38
				c6.76-20.72,28.58,6.26,35.66,14.12C1527.86,922.2,1533.76,928.72,1539.65,935.26z"/>
		</g>
		<g>
			<path class="st7" d="M1540.41,1129.88c-6.21,23.17-12.9,45.97-25.88,65.48c-5.76,3.4-11.52,6.8-17.3,10.18
				c3.75-19.57,6.87-39.24,9.27-59.01C1517.87,1141.1,1529.18,1135.58,1540.41,1129.88z"/>
		</g>
		<g>
			<path class="st6" d="M1512.28,1039.3c0.58,35.84-1.45,71.67-5.78,107.23c-27.98,13.34-56.3,26.01-84.52,38.5
				c-31.61,13.99-63.25,27.83-94.97,41.55c-1.49-32.5-3.47-65-5.54-97.48c-0.67-10.63-1.36-21.33-3.16-31.79
				c46.43-20.96,94.26-39.73,141.87-58.98c7.36,7.64,33-4.11,39.56-6.88c3.46-1.45,7.06-2.99,9.46-5.87c0.91-1.1,1.56-2.43,1.9-3.83
				C1512.02,1027.52,1512.2,1033.44,1512.28,1039.3z"/>
		</g>
		<g>
			<path class="st10" d="M1510.31,1017.72c0.32,1.34,0.58,2.68,0.78,4.03c-0.33,1.39-0.98,2.73-1.9,3.83c-2.4,2.88-6,4.42-9.46,5.87
				c-6.56,2.77-32.2,14.51-39.56,6.88C1476.93,1031.57,1493.66,1024.73,1510.31,1017.72z"/>
		</g>
		<g>
			<path class="st10" d="M1509.66,1015.22c0.24,0.82,0.46,1.65,0.65,2.51c-16.65,7.01-33.37,13.84-50.13,20.61
				c-0.46-0.48-0.85-1.04-1.17-1.69c-1.52-3.18-0.3-7.17,2.19-9.66c2.49-2.49,5.96-3.73,9.42-4.46c3.44-0.71,6.99-0.98,10.39-1.93
				c7.62-2.16,14.4-7.67,22.33-7.62C1505.62,1012.97,1508.06,1013.56,1509.66,1015.22z"/>
		</g>
		<g>
			<path class="st8" d="M1508.71,1012.22c0.35,0.98,0.67,1.99,0.95,2.99c-1.6-1.65-4.03-2.25-6.32-2.25
				c-7.93-0.06-14.72,5.46-22.33,7.62c-3.4,0.95-6.95,1.23-10.39,1.93c-3.46,0.72-6.93,1.97-9.42,4.46
				c-2.49,2.49-3.72,6.48-2.19,9.66c0.32,0.65,0.71,1.21,1.17,1.69c-47.6,19.25-95.43,38.02-141.87,58.98
				c-0.85-4.96-1.93-9.87-3.38-14.68c-4.52-15.01-12.88-29.4-25.85-38.2c-3.99-2.71-8.77-5.41-9.81-10.11
				c-0.41-1.91-0.13-3.88,0.17-5.82c4.63-30.75,11.35-61.19,20.1-91.03c6.28-21.44,14.18-43.46,30.47-58.75
				c24.4-22.91,61.6-25.21,94.82-21.22c11.33,1.36,23.3,3.62,31.61,11.45c7.93,7.49,11.04,18.66,13.69,29.25
				c3.83,15.25,7.49,29.71,9.98,45.11c2.68,16.67,8.44,32.85,16.95,47.42C1501.18,997.77,1505.98,1004.53,1508.71,1012.22z
				 M1472.85,970.62c1.04-1.47,0.98-3.44,0.87-5.22c-1.52-25.12-7.71-49.95-18.15-72.84c-2.77-6.08-6-12.23-11.28-16.33
				c-4.63-3.62-10.44-5.35-16.13-6.78c-17.37-4.42-35.55-6.97-53.23-3.99c-17.67,2.97-34.88,12.02-44.78,26.96
				c-6.19,9.35-9.23,20.38-12.19,31.2c-7.67,28.15-15.33,56.28-23,84.41c-2.6,9.59-2.32,20.77,9.77,18.62
				c7.82-1.39,15.74-4.07,23.56-6.86c7.88-0.87,16.24-3.96,22.8-4.63c7.14-0.72,14.34-0.17,21.54,0.19
				c14.49,0.72,29.02,0.65,43.5-0.2c4.63-0.28,9.55-0.74,13.21-3.59c6.71-5.18,6.08-15.37,4.35-23.69
				c-0.19-0.91-0.39-1.82-0.61-2.73c11.84-3.94,23.63-7.92,35.43-11.93C1470.12,972.67,1471.86,972.03,1472.85,970.62z"/>
		</g>
		<g>
			<path class="st7" d="M1506.5,1146.53c-2.4,19.77-5.52,39.45-9.27,59.01c-55.76,32.85-111.65,65.48-167.86,97.55
				c-0.33-25.51-1.19-51.02-2.36-76.52c31.72-13.71,63.36-27.56,94.97-41.55C1450.2,1172.54,1478.51,1159.87,1506.5,1146.53z"/>
		</g>
		<g>
			<path class="st10" d="M1433.68,987.86c-0.19-0.91-0.39-1.82-0.61-2.73c-0.95-4.07-2.3-8.08-5-11.24
				c-3.05-3.62-7.53-5.74-11.98-7.32c-16.13-5.7-33.65-5.7-50.76-5.65c-8.36,0.02-17.47,0.32-23.86,5.69
				c-4.25,3.57-6.69,9.18-6.41,14.72c0.11,2.08,0.56,4.31-0.37,6.17c-0.78,1.58-2.38,2.55-3.92,3.34
				c-7.62,3.94-31.59,12.86-19.14,24.66c4.55,4.31,10.46,5,16.67,4.29c7.88-0.87,16.24-3.96,22.8-4.63
				c7.13-0.72,14.34-0.17,21.53,0.19c14.49,0.72,29.02,0.65,43.5-0.2c4.63-0.28,9.55-0.74,13.21-3.59
				C1436.04,1006.37,1435.41,996.19,1433.68,987.86z"/>
		</g>
		<g>
			<path class="st7" d="M1327.01,1226.57c1.17,25.49,2.03,51,2.36,76.52c-27.8,15.85-55.69,31.59-83.67,47.1
				c1.17-26.89,2.29-53.83,0.35-80.66c-0.19-2.64-0.41-5.28-0.69-7.92C1272.62,1250.04,1299.82,1238.37,1327.01,1226.57z"/>
		</g>
		<g>
			<path class="st6" d="M1321.47,1129.1c2.06,32.48,4.05,64.98,5.54,97.48c-27.18,11.8-54.39,23.47-81.64,35.04
				c-1.65-16.65-5.04-33.2-12.86-47.9c-9.07-17.02-24.99-31.29-44.06-34.24c-6.65-1.02-13.19-0.67-19.55,0.76
				c46.58-32.96,97.14-59.33,149.41-82.93C1320.11,1107.77,1320.8,1118.47,1321.47,1129.1z"/>
		</g>
		<g>
			<path class="st9" d="M1315.37,879.32c-23.88,44.02-41.58,91.36-52.42,140.27c-1.08,4.83-2.77,10.48-7.47,12.04
				c-1.77,0.58-3.66,0.46-5.5,0.33c-10.91-0.78-21.8-1.58-32.68-2.34c-30.01-56.45-65.35-109.76-103.22-161.43
				C1181.29,869.15,1248.46,872.89,1315.37,879.32z"/>
		</g>
		<g>
			<path class="st10" d="M1223.29,1041.01c-0.37,0-0.74,0-1.11,0l-0.71-0.67c-4.44,2.03-8.88,4.07-13.32,6.09
				c-1.34-6.09-3.57-12.08-6.3-17.93c5.15,0.37,10.29,0.74,15.46,1.11C1219.33,1033.39,1221.32,1037.2,1223.29,1041.01z"/>
		</g>
		<g>
			<path class="st8" d="M1217.3,1029.62c-5.17-0.37-10.31-0.74-15.46-1.11c-4.5-9.53-10.37-18.67-16.18-27.3
				c-30.27-45.02-61.45-89.47-93.48-133.24c7.3,0.04,14.6,0.11,21.91,0.22C1151.95,919.86,1187.3,973.17,1217.3,1029.62z"/>
		</g>
		<g>
			<path class="st10" d="M748.57,1001c-42.09-94.04-107.6-177.61-189.27-240.47c-22.5-17.32-46.32-33.2-66.19-53.48
				c-2.36-2.4-4.78-5.15-4.98-8.49c-0.17-2.84,1.32-5.5,2.88-7.9c21.7-33.22,63.81-46.23,103.11-51.69
				c92.98-12.95,187.83,2.95,278.06,28.91c32.33,9.29,65.03,20.29,91.4,41.18c17.11,13.56,30.88,30.77,44.35,47.94
				c22.39,28.52,44.41,57.34,66.04,86.44c6.04,8.16,12.08,16.31,18.06,24.53c32.03,43.78,63.21,88.22,93.48,133.24
				c5.82,8.62,11.69,17.76,16.18,27.3c2.73,5.85,4.96,11.84,6.3,17.93c-0.02,0-0.06,0.02-0.07,0.04
				c-62.26-35.43-135.75-48.7-207.44-57.12c-45.15-5.31-90.8-9.07-136.03-4.57c-12.46,1.25-24.86,3.13-37.1,5.76
				c-6.58,1.41-13.12,3.04-19.59,4.9c-4.45,1.28-8.56,3.48-13.01,4.81c-1.97,0.59-3.97,1.04-5.89,1.79
				c-1.84,0.72-3.62,1.64-5.44,2.43c-3.87,1.68-7.81,3.23-11.76,4.71c-1.55,0.58-3.11,1.16-4.67,1.73
				c-0.73,0.27-1.69,0.45-2.33,0.88c-0.36,0.24-0.53,0.66-0.93,0.84c-0.64,0.28-1.82,0.01-2.51,0.01c-0.84-0.01-1.68-0.01-2.52-0.01
				c-0.49,0-4.92,0.34-5.02,0.11C752.01,1008.81,750.32,1004.9,748.57,1001z"/>
		</g>
		<g>
			<path class="st11" d="M1208.07,1046.47c-31.37,14.34-62.74,28.68-94.12,43.03c-43.15,19.72-86.31,39.47-129.49,59.2
				c-26.76,12.22-53.83,24.65-76.56,43.34c-11.88,9.77-23.19,21.58-38.14,25.22c-9.33,2.28-19.1,1.09-28.61-0.11
				c-48.74-6.12-97.48-12.29-146.22-18.45c-57.91-7.34-115.94-14.66-173.06-26.47c-13-2.68-25.96-5.6-38.85-8.8
				c-20.16-5-40.14-10.69-59.93-17.05c-3.31-1.06-7.19-2.79-7.63-6.24c-0.41-3.09,2.21-5.65,4.6-7.62
				c73.69-60.21,169.46-84.57,261.88-107.3c11.48-2.81,22.96-5.63,34.57-7.88c6.77-1.32,13.57-2.43,20.42-3.26
				c3.08-0.37,6.09-0.48,9.12-1.04c2.56-0.47,5.14-0.77,7.74-0.9c0.75-0.03,1.51-0.07,2.27-0.08c1.82-0.02,3.64,0.03,5.45-0.15
				c4.57-0.44,8.82-2.3,12.94-4.22c4.21-1.98,8.45-3.77,12.8-5.42c12.4-4.67,25.15-8.39,38.07-11.26
				c12.94-2.88,26.08-4.93,39.27-6.23c45.23-4.5,90.89-0.75,136.03,4.57C1072.32,997.76,1145.81,1011.03,1208.07,1046.47z"/>
		</g>
		<g>
			<path class="st8" d="M1114.09,868.19c-7.3-0.11-14.6-0.19-21.91-0.22c-5.98-8.21-12.02-16.37-18.06-24.53
				c6.11-1.51,12.26-2.88,18.45-4.11C1099.82,848.9,1107.01,858.5,1114.09,868.19z"/>
		</g>
		<g>
			<path class="st8" d="M1092.57,839.33c-6.19,1.23-12.34,2.6-18.45,4.11c-21.63-29.1-43.65-57.92-66.04-86.44
				c-13.47-17.17-27.24-34.37-44.35-47.94c-26.37-20.88-59.07-31.88-91.4-41.18c-90.23-25.96-185.08-41.86-278.06-28.91
				c-39.3,5.46-81.4,18.47-103.11,51.69c-1.56,2.4-3.05,5.05-2.88,7.9c0.2,3.34,2.62,6.09,4.98,8.49
				c19.86,20.27,43.68,36.16,66.19,53.48c81.66,62.86,152.38,146.03,194.34,251.61c-2.71,0.5-6.5,0.9-9.22,1.42
				c-49.7-103.35-143.56-196.14-233.97-268.9c-10.16-8.19-20.55-16.5-27.82-27.37c-7.27-10.85-11.02-24.88-6.61-37.16
				c3.01-8.44,9.46-15.16,16.2-21.07c29.47-25.85,67.3-40.77,105.84-47.94c112.82-21.03,226.82,20.81,333.95,61.91
				c12.82,4.92,25.77,9.92,37.03,17.76c13.27,9.25,23.58,22.04,33.71,34.65C1033.11,763.05,1063.4,800.79,1092.57,839.33z"/>
		</g>
		<g>
			<path class="st7" d="M1061.28,1334.7c-7.25,23.67-13.62,47.72-20.74,71.16c-5.54,18.27-11.71,36.53-21.55,52.86
				c-1.26,2.08-2.58,4.14-3.98,6.15c-6.74,2.04-13.55,3.85-20.42,5.39c-36.51,8.16-74.25,8.57-111.65,8.03
				c-168.53-2.38-339.99-23.93-494.25-90.43c-2.1-3.4-4.09-6.84-5.96-10.37c-17.91-33.72-23.73-72.3-28.6-110.26
				c32.72,21.48,71.56,33.87,109.68,44.17c121.15,32.68,246.33,50.35,371.77,52.47c51,0.87,102.31-0.85,152.44-10.28
				C1012.86,1348.93,1037.24,1342.39,1061.28,1334.7z"/>
		</g>
		<g>
			<path class="st3" d="M757.31,1299.32c0.13,1.99,0.17,4.18-1.08,5.76c-1.51,1.91-4.29,2.12-6.74,2.16
				c-72.87,0.91-145.08-12.62-216.73-26.09c-23.21-4.37-46.55-8.75-68.64-17.08c-16.11-6.08-31.44-14.2-45.49-24.1
				c-4.12-2.92-8.25-6.09-10.76-10.48c-2.42-4.24-3.08-9.2-3.73-14.03c-2.3-17.45-4.5-35.88,2.3-52.12
				c0.58-1.36,1.28-2.77,2.56-3.44c1.39-0.76,3.1-0.45,4.66-0.13c54.67,11.46,109.13,23.93,164.09,33.95
				c27.82,5.05,55.76,9.49,83.84,12.8c14.44,1.71,28.89,3.12,43.4,4.18c8.79,0.63,29.67-2.27,36.46,3.53c7.21,6.15,8.34,29,10,37.77
				C754.4,1267.64,756.37,1283.45,757.31,1299.32z"/>
		</g>
		<path class="st12" d="M1314.93,1082.63c1.4,4.64,2.45,9.38,3.29,14.17h-1.06c-0.83-4.68-1.86-9.3-3.24-13.85
			c-4.51-15.01-12.88-29.4-25.84-38.2c-4-2.71-8.77-5.41-9.81-10.11c-0.41-1.92-0.13-3.89,0.17-5.82
			c4.62-30.75,11.35-61.19,20.1-91.02c6.28-21.44,14.17-43.47,30.47-58.76c8.52-8.01,18.62-13.49,29.55-17.08
			c-10.55,3.6-20.28,8.98-28.55,16.74c-16.29,15.29-24.19,37.31-30.48,58.76c-8.74,29.84-15.48,60.28-20.1,91.02
			c-0.3,1.93-0.57,3.91-0.17,5.82c1.04,4.7,5.82,7.39,9.82,10.11C1302.05,1053.24,1310.41,1067.61,1314.93,1082.63z"/>
		<path class="st3" d="M1468.5,973.2c-11.79,4.01-23.6,7.99-35.43,11.93c0.21,0.92,0.42,1.82,0.6,2.74
			c1.73,8.32,2.37,18.51-4.34,23.69c-3.66,2.84-8.59,3.31-13.21,3.59c-14.47,0.86-29,0.93-43.5,0.2c-7.18-0.35-14.4-0.9-21.53-0.18
			c-6.56,0.67-14.92,3.75-22.79,4.62c-7.82,2.78-15.74,5.46-23.57,6.86c-12.1,2.16-12.37-9.04-9.77-18.62
			c7.67-28.13,15.33-56.27,23.01-84.41c2.95-10.82,6-21.86,12.18-31.2c9.91-14.93,27.12-23.99,44.79-26.96
			c17.69-2.97,35.86-0.42,53.23,4c5.68,1.43,11.5,3.16,16.13,6.78c5.28,4.11,8.51,10.26,11.28,16.34
			c10.44,22.88,16.63,47.71,18.16,72.83c0.11,1.79,0.17,3.75-0.88,5.23C1471.86,972.03,1470.12,972.67,1468.5,973.2z"/>
		<path class="st3" d="M1496.57,959.27c-5.33-15.83-16.78-40.46-11.26-57.37c6.77-20.72,28.58,6.25,35.66,14.12
			c5.89,6.52,11.78,13.04,17.67,19.59c2.43,2.67,5.24,5.57,8.87,5.75c-15.17,7.83-30.9,14.47-47.07,19.88
			c-0.77,0.27-1.66,0.52-2.43,0.17C1497.21,961.02,1496.85,960.1,1496.57,959.27z"/>
		<g>
			<path class="st13" d="M1628.39,1000.24c2.43,24.1,0.3,48.4-1.84,72.52c-0.28,3.14-0.56,6.3-0.84,9.44
				c-4.2,2.64-8.42,5.24-12.67,7.79c-1.49-11.89-4.33-23.54-9.05-34.58c-2.04-4.79-4.68-9.7-9.23-12.23
				c-5.44-3.01-12.51-1.73-17.67,1.77c-5.15,3.49-8.75,8.84-11.82,14.27c-12.28,21.67-18.28,46.36-24.86,70.66
				c-11.22,5.7-22.54,11.22-33.91,16.65c4.33-35.56,6.35-71.39,5.78-107.23c-0.07-5.85-0.26-11.78-1.19-17.54
				c-0.39-2.43-0.61-2.64-1.07-4c37.09-15.63,74.73-32.46,110.14-51.15C1624.67,977.18,1627.25,988.92,1628.39,1000.24z"/>
		</g>
		<g>
			<path class="st14" d="M1625.71,1082.2c-1.08,12.23-2.16,24.43-3.23,36.68c-0.41,4.53-1.13,9.46-2.49,14.01
				c-2.32,1.41-4.65,2.79-6.97,4.2c0.04-0.45,0.09-0.87,0.13-1.32c1.47-15.18,1.78-30.68-0.11-45.78
				C1617.29,1087.44,1621.51,1084.84,1625.71,1082.2z"/>
		</g>
		<g>
			<path class="st15" d="M1207.16,1046.84c0-0.02,0-0.06-0.02-0.07c4.44-2.03,8.88-4.07,13.32-6.09l0.71,0.67c0.37,0,0.74,0,1.11,0
				c-1.97-3.81-3.96-7.62-5.98-11.39c10.89,0.76,21.78,1.56,32.68,2.34c1.84,0.13,3.73,0.24,5.5-0.33c4.7-1.56,6.39-7.21,7.47-12.04
				c10.83-48.9,28.54-96.25,52.42-140.27c-66.91-6.43-134.08-10.16-201.29-11.13c-7.08-9.68-14.27-19.29-21.52-28.86
				c67.86-13.6,139.23-11.04,208.92-8.23c63.96,2.56,131.35,6.17,185.18,40.79c28.54,18.34,52.42,44.97,84.52,55.89
				c6.99,2.38,14.27,3.98,20.92,7.15c13.23,6.34,22.24,18.04,28.04,31.68c-35.42,18.69-72.06,35.19-109.14,50.82
				c-0.26-0.78-0.67-1.51-1.24-2.12c-0.04-0.04-0.07-0.07-0.11-0.09c-0.28-1-0.59-2.01-0.95-2.99c-2.73-7.69-7.53-14.46-11.65-21.5
				c-8.51-14.57-14.27-30.75-16.95-47.42c-2.49-15.4-6.15-29.86-9.98-45.11c-2.66-10.59-5.76-21.76-13.69-29.25
				c-8.31-7.82-20.27-10.09-31.61-11.45c-33.22-3.99-70.42-1.69-94.82,21.22c-16.3,15.29-24.19,37.31-30.47,58.75
				c-8.75,29.84-15.48,60.28-20.1,91.03c-0.3,1.93-0.58,3.9-0.17,5.82c1.04,4.7,5.82,7.4,9.81,10.11
				c12.97,8.81,21.33,23.19,25.85,38.2c1.45,4.81,2.53,9.72,3.38,14.68c-52.27,23.6-102.83,49.96-149.41,82.93
				c-19.62,4.44-37.37,19.25-50.5,35.38c-28.11,34.5-44.02,76.14-57.12,119.08c-24.04,7.69-48.42,14.23-73.26,18.9
				c-50.13,9.42-101.43,11.15-152.44,10.28c-125.44-2.12-250.62-19.79-371.77-52.47c-38.13-10.29-76.96-22.69-109.68-44.17
				c-0.3-2.27-0.59-4.52-0.87-6.76c-0.78-6-1.51-12.28,0.54-17.99c2.42-6.73,8.27-11.54,13.84-15.98
				c6.84-5.43,13.66-10.85,20.48-16.28c3.14-2.51,6.43-5.24,7.58-9.07c0.89-2.97,0.33-6.15-0.22-9.2
				c-1.78-9.83-3.57-19.66-5.35-29.49c-1.28-7.14-2.56-14.64-0.19-21.5c2.14-6.17,6.95-11,11.84-15.33
				c33.35-29.71,75.55-47.38,117.56-62.56c71.98-26.01,146.06-46.29,221.26-60.56c1.73,3.53,3.38,7.1,4.98,10.7
				c-21.42,1.67-42.66,6.86-63.62,12c-92.42,22.72-188.19,47.08-261.88,107.29c-2.4,1.97-5.02,4.53-4.61,7.62
				c0.45,3.46,4.33,5.18,7.64,6.24c19.79,6.37,39.76,12.06,59.92,17.06c69.55,17.26,140.82,26.27,211.92,35.27
				c48.74,6.17,97.48,12.34,146.21,18.45c9.51,1.21,19.29,2.4,28.61,0.11c14.96-3.64,26.25-15.44,38.15-25.21
				c22.72-18.69,49.8-31.12,76.55-43.35c74.55-34.08,149.06-68.15,223.6-102.23C1207.11,1046.82,1207.13,1046.84,1207.16,1046.84z
				 M1547.51,941.36c-3.62-0.19-6.43-3.08-8.86-5.76c-5.89-6.54-11.78-13.06-17.67-19.58c-7.08-7.86-28.89-34.84-35.66-14.12
				c-5.52,16.91,5.93,41.55,11.26,57.38c0.28,0.84,0.63,1.75,1.43,2.14c0.76,0.35,1.65,0.09,2.43-0.17
				C1516.61,955.83,1532.35,949.18,1547.51,941.36z M755.24,1305.41c1.24-1.58,1.21-3.77,1.08-5.76
				c-0.95-15.87-2.92-31.68-5.85-47.31c-1.65-8.77-2.79-31.62-10-37.77c-6.78-5.8-27.67-2.9-36.46-3.53
				c-14.51-1.06-28.97-2.47-43.4-4.18c-28.08-3.31-56.02-7.75-83.84-12.8c-54.96-10.02-109.42-22.48-164.09-33.95
				c-1.56-0.32-3.27-0.63-4.66,0.13c-1.28,0.67-1.99,2.08-2.56,3.44c-6.8,16.24-4.61,34.67-2.3,52.12
				c0.65,4.83,1.32,9.79,3.73,14.03c2.51,4.39,6.63,7.56,10.76,10.48c14.05,9.9,29.38,18.02,45.49,24.1
				c22.09,8.32,45.43,12.71,68.64,17.08c71.65,13.47,143.85,27,216.73,26.09C750.95,1307.53,753.73,1307.32,755.24,1305.41z"/>
		</g>
		<g>
			<path class="st14" d="M1540.41,1129.88c-6.21,23.17-12.9,45.97-25.88,65.48c-5.76,3.4-11.52,6.8-17.3,10.18
				c3.75-19.57,6.87-39.24,9.27-59.01C1517.87,1141.1,1529.18,1135.58,1540.41,1129.88z"/>
		</g>
		<g>
			<path class="st13" d="M1512.28,1039.3c0.58,35.84-1.45,71.67-5.78,107.23c-27.98,13.34-56.3,26.01-84.52,38.5
				c-31.61,13.99-63.25,27.83-94.97,41.55c-1.49-32.5-3.47-65-5.54-97.48c-0.67-10.63-1.36-21.33-3.16-31.79
				c46.43-20.96,94.26-39.73,141.87-58.98c7.36,7.64,33-4.11,39.56-6.88c3.46-1.45,7.06-2.99,9.46-5.87c0.91-1.1,1.56-2.43,1.9-3.83
				C1512.02,1027.52,1512.2,1033.44,1512.28,1039.3z"/>
		</g>
		<path class="st14" d="M1510.31,1017.72c-0.19-0.85-0.41-1.69-0.65-2.51c-1.6-1.65-4.03-2.25-6.32-2.25
			c-7.93-0.06-14.72,5.46-22.33,7.62c-3.4,0.95-6.95,1.23-10.39,1.93c-3.46,0.72-6.93,1.97-9.42,4.46s-3.72,6.48-2.19,9.66
			c0.32,0.65,0.71,1.21,1.17,1.69c7.36,7.64,33-4.11,39.56-6.87c3.46-1.45,7.06-2.99,9.46-5.87c0.91-1.1,1.56-2.43,1.9-3.83
			C1510.88,1020.4,1510.62,1019.06,1510.31,1017.72z"/>
		<g>
			<path class="st15" d="M1508.71,1012.22c0.35,0.98,0.67,1.99,0.95,2.99c-1.6-1.65-4.03-2.25-6.32-2.25
				c-7.93-0.06-14.72,5.46-22.33,7.62c-3.4,0.95-6.95,1.23-10.39,1.93c-3.46,0.72-6.93,1.97-9.42,4.46
				c-2.49,2.49-3.72,6.48-2.19,9.66c0.32,0.65,0.71,1.21,1.17,1.69c-47.6,19.25-95.43,38.02-141.87,58.98
				c-0.85-4.96-1.93-9.87-3.38-14.68c-4.52-15.01-12.88-29.4-25.85-38.2c-3.99-2.71-8.77-5.41-9.81-10.11
				c-0.41-1.91-0.13-3.88,0.17-5.82c4.63-30.75,11.35-61.19,20.1-91.03c6.28-21.44,14.18-43.46,30.47-58.75
				c24.4-22.91,61.6-25.21,94.82-21.22c11.33,1.36,23.3,3.62,31.61,11.45c7.93,7.49,11.04,18.66,13.69,29.25
				c3.83,15.25,7.49,29.71,9.98,45.11c2.68,16.67,8.44,32.85,16.95,47.42C1501.18,997.77,1505.98,1004.53,1508.71,1012.22z
				 M1472.85,970.62c1.04-1.47,0.98-3.44,0.87-5.22c-1.52-25.12-7.71-49.95-18.15-72.84c-2.77-6.08-6-12.23-11.28-16.33
				c-4.63-3.62-10.44-5.35-16.13-6.78c-17.37-4.42-35.55-6.97-53.23-3.99c-17.67,2.97-34.88,12.02-44.78,26.96
				c-6.19,9.35-9.23,20.38-12.19,31.2c-7.67,28.15-15.33,56.28-23,84.41c-2.6,9.59-2.32,20.77,9.77,18.62
				c7.82-1.39,15.74-4.07,23.56-6.86c7.88-0.87,16.24-3.96,22.8-4.63c7.14-0.72,14.34-0.17,21.54,0.19
				c14.49,0.72,29.02,0.65,43.5-0.2c4.63-0.28,9.55-0.74,13.21-3.59c6.71-5.18,6.08-15.37,4.35-23.69
				c-0.19-0.91-0.39-1.82-0.61-2.73c11.84-3.94,23.63-7.92,35.43-11.93C1470.12,972.67,1471.86,972.03,1472.85,970.62z"/>
		</g>
		<g>
			<path class="st14" d="M1506.5,1146.53c-2.4,19.77-5.52,39.45-9.27,59.01c-55.76,32.85-111.65,65.48-167.86,97.55
				c-0.33-25.51-1.19-51.02-2.36-76.52c31.72-13.71,63.36-27.56,94.97-41.55C1450.2,1172.54,1478.51,1159.87,1506.5,1146.53z"/>
		</g>
		<g>
			<path class="st14" d="M1433.68,987.86c-0.19-0.91-0.39-1.82-0.61-2.73c-0.95-4.07-2.3-8.08-5-11.24
				c-3.05-3.62-7.53-5.74-11.98-7.32c-16.13-5.7-33.65-5.7-50.76-5.65c-8.36,0.02-17.47,0.32-23.86,5.69
				c-4.25,3.57-6.69,9.18-6.41,14.72c0.11,2.08,0.56,4.31-0.37,6.17c-0.78,1.58-2.38,2.55-3.92,3.34
				c-7.62,3.94-31.59,12.86-19.14,24.66c4.55,4.31,10.46,5,16.67,4.29c7.88-0.87,16.24-3.96,22.8-4.63
				c7.13-0.72,14.34-0.17,21.53,0.19c14.49,0.72,29.02,0.65,43.5-0.2c4.63-0.28,9.55-0.74,13.21-3.59
				C1436.04,1006.37,1435.41,996.19,1433.68,987.86z"/>
		</g>
		<g>
			<path class="st14" d="M1327.01,1226.57c1.17,25.49,2.03,51,2.36,76.52c-27.8,15.85-55.69,31.59-83.67,47.1
				c1.17-26.89,2.29-53.83,0.35-80.66c-0.19-2.64-0.41-5.28-0.69-7.92C1272.62,1250.04,1299.82,1238.37,1327.01,1226.57z"/>
		</g>
		<g>
			<path class="st13" d="M1321.47,1129.1c2.06,32.48,4.05,64.98,5.54,97.48c-27.18,11.8-54.39,23.47-81.64,35.04
				c-1.65-16.65-5.04-33.2-12.86-47.9c-9.07-17.02-24.99-31.29-44.06-34.24c-6.65-1.02-13.19-0.67-19.55,0.76
				c46.58-32.96,97.14-59.33,149.41-82.93C1320.11,1107.77,1320.8,1118.47,1321.47,1129.1z"/>
		</g>
		<g>
			<path class="st3" d="M1315.37,879.32c-23.88,44.02-41.58,91.36-52.42,140.27c-1.08,4.83-2.77,10.48-7.47,12.04
				c-1.77,0.58-3.66,0.46-5.5,0.33c-10.91-0.78-21.8-1.58-32.68-2.34c-30.01-56.45-65.35-109.76-103.22-161.43
				C1181.29,869.15,1248.46,872.89,1315.37,879.32z"/>
		</g>
		<g>
			<path class="st15" d="M1223.29,1041.01c-0.37,0-0.74,0-1.11,0l-0.71-0.67c-4.44,2.03-8.88,4.07-13.32,6.09
				c-1.34-6.09-3.57-12.08-6.3-17.93c5.15,0.37,10.29,0.74,15.46,1.11C1219.33,1033.39,1221.32,1037.2,1223.29,1041.01z"/>
		</g>
		<g>
			<path class="st14" d="M748.57,1001c-42.09-94.04-107.6-177.61-189.27-240.47c-22.5-17.32-46.32-33.2-66.19-53.48
				c-2.36-2.4-4.78-5.15-4.98-8.49c-0.17-2.84,1.32-5.5,2.88-7.9c21.7-33.22,63.81-46.23,103.11-51.69
				c92.98-12.95,187.83,2.95,278.06,28.91c32.33,9.29,65.03,20.29,91.4,41.18c17.11,13.56,30.88,30.77,44.35,47.94
				c22.39,28.52,44.41,57.34,66.04,86.44c6.04,8.16,12.08,16.31,18.06,24.53c32.03,43.78,63.21,88.22,93.48,133.24
				c5.82,8.62,11.69,17.76,16.18,27.3c2.73,5.85,4.96,11.84,6.3,17.93c-0.02,0-0.06,0.02-0.07,0.04
				c-62.26-35.43-135.75-48.7-207.44-57.12c-45.15-5.31-90.8-9.07-136.03-4.57c-12.46,1.25-24.86,3.13-37.1,5.76
				c-6.58,1.41-13.12,3.04-19.59,4.9c-4.45,1.28-8.56,3.48-13.01,4.81c-1.97,0.59-3.97,1.04-5.89,1.79
				c-1.84,0.72-3.62,1.64-5.44,2.43c-3.87,1.68-7.81,3.23-11.76,4.71c-1.55,0.58-3.11,1.16-4.67,1.73
				c-0.73,0.27-1.69,0.45-2.33,0.88c-0.36,0.24-0.53,0.66-0.93,0.84c-0.64,0.28-1.82,0.01-2.51,0.01c-0.84-0.01-1.68-0.01-2.52-0.01
				c-0.49,0-4.92,0.34-5.02,0.11C752.01,1008.81,750.32,1004.9,748.57,1001z"/>
		</g>
		<g>
			<path class="st16" d="M1208.07,1046.47c-31.37,14.34-62.74,28.68-94.12,43.03c-43.15,19.72-86.31,39.47-129.49,59.2
				c-26.76,12.22-53.83,24.65-76.56,43.34c-11.88,9.77-23.19,21.58-38.14,25.22c-9.33,2.28-19.1,1.09-28.61-0.11
				c-48.74-6.12-97.48-12.29-146.22-18.45c-57.91-7.34-115.94-14.66-173.06-26.47c-13-2.68-25.96-5.6-38.85-8.8
				c-20.16-5-40.14-10.69-59.93-17.05c-3.31-1.06-7.19-2.79-7.63-6.24c-0.41-3.09,2.21-5.65,4.6-7.62
				c73.69-60.21,169.46-84.57,261.88-107.3c11.48-2.81,22.96-5.63,34.57-7.88c6.77-1.32,13.57-2.43,20.42-3.26
				c3.08-0.37,6.09-0.48,9.12-1.04c2.56-0.47,5.14-0.77,7.74-0.9c0.75-0.03,1.51-0.07,2.27-0.08c1.82-0.02,3.64,0.03,5.45-0.15
				c4.57-0.44,8.82-2.3,12.94-4.22c4.21-1.98,8.45-3.77,12.8-5.42c12.4-4.67,25.15-8.39,38.07-11.26
				c12.94-2.88,26.08-4.93,39.27-6.23c45.23-4.5,90.89-0.75,136.03,4.57C1072.32,997.76,1145.81,1011.03,1208.07,1046.47z"/>
		</g>
		<path class="st15" d="M1114.09,868.19c-7.08-9.68-14.27-19.29-21.52-28.86c-29.17-38.54-59.46-76.27-89.67-113.88
			c-10.13-12.62-20.44-25.4-33.71-34.65c-11.26-7.84-24.21-12.84-37.03-17.76c-107.14-41.1-221.13-82.95-333.95-61.91
			c-38.54,7.17-76.37,22.09-105.84,47.94c-6.74,5.91-13.19,12.64-16.2,21.07c-4.4,12.28-0.65,26.31,6.61,37.16
			c7.27,10.87,17.65,19.18,27.82,27.37c90.41,72.76,184.27,165.55,233.97,268.9c2.71-0.52,6.5-0.92,9.22-1.42
			c-41.96-105.58-112.68-188.75-194.34-251.61c-22.5-17.32-46.32-33.2-66.19-53.48c-2.36-2.4-4.78-5.15-4.98-8.49
			c-0.17-2.84,1.32-5.5,2.88-7.9c21.7-33.22,63.81-46.23,103.11-51.69c92.98-12.95,187.83,2.95,278.06,28.91
			c32.33,9.29,65.03,20.29,91.4,41.18c17.11,13.56,30.88,30.77,44.35,47.94c22.39,28.52,44.41,57.34,66.04,86.44
			c6.04,8.16,12.08,16.31,18.06,24.53c32.03,43.78,63.21,88.22,93.48,133.24c5.82,8.62,11.69,17.76,16.18,27.3
			c5.15,0.37,10.29,0.74,15.46,1.11C1187.3,973.17,1151.95,919.86,1114.09,868.19z"/>
		<g>
			<path class="st14" d="M1061.28,1334.7c-7.25,23.67-13.62,47.72-20.74,71.16c-5.54,18.27-11.71,36.53-21.55,52.86
				c-1.26,2.08-2.58,4.14-3.98,6.15c-6.74,2.04-13.55,3.85-20.42,5.39c-36.51,8.16-74.25,8.57-111.65,8.03
				c-168.53-2.38-339.99-23.93-494.25-90.43c-2.1-3.4-4.09-6.84-5.96-10.37c-17.91-33.72-23.73-72.3-28.6-110.26
				c32.72,21.48,71.56,33.87,109.68,44.17c121.15,32.68,246.33,50.35,371.77,52.47c51,0.87,102.31-0.85,152.44-10.28
				C1012.86,1348.93,1037.24,1342.39,1061.28,1334.7z"/>
		</g>
		<g>
			<path class="st17" d="M757.31,1299.32c0.13,1.99,0.17,4.18-1.08,5.76c-1.51,1.91-4.29,2.12-6.74,2.16
				c-72.87,0.91-145.08-12.62-216.73-26.09c-23.21-4.37-46.55-8.75-68.64-17.08c-16.11-6.08-31.44-14.2-45.49-24.1
				c-4.12-2.92-8.25-6.09-10.76-10.48c-2.42-4.24-3.08-9.2-3.73-14.03c-2.3-17.45-4.5-35.88,2.3-52.12
				c0.58-1.36,1.28-2.77,2.56-3.44c1.39-0.76,3.1-0.45,4.66-0.13c54.67,11.46,109.13,23.93,164.09,33.95
				c27.82,5.05,55.76,9.49,83.84,12.8c14.44,1.71,28.89,3.12,43.4,4.18c8.79,0.63,29.67-2.27,36.46,3.53c7.21,6.15,8.34,29,10,37.77
				C754.4,1267.64,756.37,1283.45,757.31,1299.32z"/>
		</g>
		<g>
			<path class="st18" d="M1328.46,1304.68l-0.02-1.57c-0.31-23.66-1.08-48.68-2.36-76.49c-1.55-33.82-3.67-68.04-5.54-97.46
				c-0.66-10.4-1.33-21.16-3.15-31.69c-0.93-5.39-2.03-10.15-3.36-14.57c-3.52-11.69-10.79-27.73-25.48-37.7l-1.3-0.87
				c-3.7-2.46-7.89-5.24-8.9-9.81c-0.46-2.15-0.12-4.37,0.16-6.16c4.61-30.66,11.38-61.33,20.13-91.15
				c5.93-20.24,13.68-43.17,30.73-59.17c20.64-19.38,52.79-26.61,95.56-21.46c11.73,1.4,23.75,3.79,32.13,11.69
				c7.88,7.43,11.1,18.29,13.96,29.7l0.26,1.06c3.75,14.94,7.29,29.05,9.73,44.13c2.65,16.5,8.47,32.78,16.83,47.1
				c0.99,1.7,2.03,3.38,3.06,5.06c3.22,5.25,6.56,10.67,8.66,16.6c1.41,3.81,3.68,12.23,3.62,27.39
				c-0.15,42.07-1.99,76.18-5.78,107.34c-2.34,19.29-5.46,39.16-9.28,59.07l-0.08,0.41l-0.36,0.21
				c-65.21,38.42-118.55,69.42-167.87,97.56L1328.46,1304.68z M1399.6,856.83c-29.84,0-52.96,7.55-68.95,22.57
				c-16.71,15.68-24.36,38.34-30.22,58.34c-8.72,29.74-15.48,60.32-20.08,90.9c-0.32,2.08-0.54,3.81-0.18,5.48
				c0.85,3.83,4.54,6.28,8.11,8.66l1.31,0.88c15.14,10.28,22.61,26.72,26.21,38.7c1.35,4.49,2.47,9.32,3.41,14.79
				c1.83,10.63,2.51,21.44,3.17,31.89c1.87,29.43,3.99,63.66,5.54,97.49c1.25,27.21,2.02,51.75,2.34,74.97
				c48.84-27.88,101.68-58.59,166.12-96.55c3.77-19.73,6.86-39.42,9.18-58.54c3.78-31.08,5.62-65.12,5.77-107.12l0,0
				c0.06-15.42-2.4-23.74-3.46-26.6c-2.09-5.89-5.38-11.24-8.55-16.4c-1.04-1.69-2.08-3.39-3.08-5.1
				c-8.48-14.51-14.38-31.02-17.06-47.74c-2.43-15.01-5.96-29.08-9.7-43.98l-0.27-1.06c-2.79-11.13-5.92-21.71-13.43-28.8
				c-7.99-7.53-19.66-9.83-31.08-11.2C1415.89,857.36,1407.51,856.83,1399.6,856.83z"/>
		</g>
		<ellipse class="st12" cx="805.86" cy="1267.23" rx="26.91" ry="33.24"/>
		<ellipse class="st19" cx="890.46" cy="1273.55" rx="42.26" ry="46.2"/>
		<line class="st20" x1="545.99" y1="707.03" x2="468.76" y2="1124.11"/>
		<path class="st17" d="M1113.95,1089.5c-43.15,19.72-86.31,39.47-129.49,59.2c-26.76,12.22-53.83,24.65-76.56,43.34
			c-11.88,9.77-23.19,21.58-38.14,25.22c-9.33,2.28-19.1,1.09-28.61-0.11c-48.74-6.12-97.48-12.29-146.22-18.45
			c-57.91-7.34-115.94-14.66-173.06-26.47c-9.17-10.6-15.9-23.28-15.51-33.93c0.41-11.32,8.76-22.47,19.94-28.25
			c3.29-1.7,39.75-8.9,39.8-6.31c-0.11-5.25-0.23-10.5-0.36-15.75c29.52-10.23,61.05-20.66,92.5-16.04
			c5.91,0.87,11.99,2.27,17.78,0.97c5.64-1.26,10.02-4.86,14.9-7.55c6.33-3.48,13.63-5.49,20.63-7.93
			c20-6.92,37.96-17.42,57.45-25.34c19.48-7.93,41.69-13.29,62.72-8.98c21.03,4.31,39.54,20.89,37.16,38.93
			c7.39,8.41,25.43,7.2,31.16-2.07c1.38-2.24,2.18-4.86,4.39-6.58c6.91-5.38,16.94,2.71,21.24,9.75
			c17.55-2.38,35.84-0.75,52.38,4.69c1.4-12.22-1.4-24.76-7.96-35.73c4.2-3.84,12.01-2.06,16.8,1.26c4.8,3.31,8.57,7.92,14.35,9.83
			c5.05,1.66,10.71,0.96,16.06,0.22c6.41-0.87,12.81-1.75,19.22-2.62c3.51-0.48,7.84-0.68,9.84,1.78c2.97,3.66-2.41,7.9-4.49,11.96
			c-3.93,7.65,5.23,16.04,14.87,18.01c9.64,1.98,19.82,0.16,29.65,1.27C1097.98,1075.17,1107.69,1081.34,1113.95,1089.5z"/>
		<g>
			<path class="st11" d="M1328.46,1304.68l-0.02-1.57c-0.31-23.66-1.08-48.68-2.36-76.49c-1.55-33.82-3.67-68.04-5.54-97.46
				c-0.66-10.4-1.33-21.16-3.15-31.69c-0.93-5.39-2.03-10.15-3.36-14.57c-3.52-11.69-10.79-27.73-25.48-37.7l-1.3-0.87
				c-3.7-2.46-7.89-5.24-8.9-9.81c-0.46-2.15-0.12-4.37,0.16-6.16c4.61-30.66,11.38-61.33,20.13-91.15
				c5.93-20.24,13.68-43.17,30.73-59.17c20.64-19.38,52.79-26.61,95.56-21.46c11.73,1.4,23.75,3.79,32.13,11.69
				c7.88,7.43,11.1,18.29,13.96,29.7l0.26,1.06c3.75,14.94,7.29,29.05,9.73,44.13c2.65,16.5,8.47,32.78,16.83,47.1
				c0.99,1.7,2.03,3.38,3.06,5.06c3.22,5.25,6.56,10.67,8.66,16.6c1.41,3.81,3.68,12.23,3.62,27.39
				c-0.15,42.07-1.99,76.18-5.78,107.34c-2.34,19.29-5.46,39.16-9.28,59.07l-0.08,0.41l-0.36,0.21
				c-65.21,38.42-118.55,69.42-167.87,97.56L1328.46,1304.68z M1399.6,856.83c-29.84,0-52.96,7.55-68.95,22.57
				c-16.71,15.68-24.36,38.34-30.22,58.34c-8.72,29.74-15.48,60.32-20.08,90.9c-0.32,2.08-0.54,3.81-0.18,5.48
				c0.85,3.83,4.54,6.28,8.11,8.66l1.31,0.88c15.14,10.28,22.61,26.72,26.21,38.7c1.35,4.49,2.47,9.32,3.41,14.79
				c1.83,10.63,2.51,21.44,3.17,31.89c1.87,29.43,3.99,63.66,5.54,97.49c1.25,27.21,2.02,51.75,2.34,74.97
				c48.84-27.88,101.68-58.59,166.12-96.55c3.77-19.73,6.86-39.42,9.18-58.54c3.78-31.08,5.62-65.12,5.77-107.12l0,0
				c0.06-15.42-2.4-23.74-3.46-26.6c-2.09-5.89-5.38-11.24-8.55-16.4c-1.04-1.69-2.08-3.39-3.08-5.1
				c-8.48-14.51-14.38-31.02-17.06-47.74c-2.43-15.01-5.96-29.08-9.7-43.98l-0.27-1.06c-2.79-11.13-5.92-21.71-13.43-28.8
				c-7.99-7.53-19.66-9.83-31.08-11.2C1415.89,857.36,1407.51,856.83,1399.6,856.83z"/>
		</g>
		<ellipse class="st21" cx="805.86" cy="1267.23" rx="26.91" ry="33.24"/>
		<ellipse class="st5" cx="890.46" cy="1273.55" rx="42.26" ry="46.2"/>
		<line class="st22" x1="545.99" y1="707.03" x2="468.76" y2="1124.11"/>
	</g>
	<g>
		<path class="st23" d="M450.08,762.48c-1.01,7.21,0.33,14.68-1.36,21.76c-1.01,4.25-3.1,8.58-1.89,12.78
			c0.54,1.88,1.71,3.51,2.87,5.09c11.52,15.65,24.84,30.66,42.11,39.57c2.16,1.11,4.45,2.15,6.88,2.17
			c2.43,0.02,5.02-1.21,5.89-3.48c1.57-4.09-2.87-7.78-4.64-11.79c-2.96-6.72,1.86-14.05,3.93-21.1
			c3.08-10.45-0.16-21.95-6.11-31.09C489.43,763.58,454.89,728.06,450.08,762.48z"/>
		<path class="st24" d="M544.67,712.29c0.73,6.39,0.12,12.86-0.48,19.27c-1.88,19.83-3.89,40.16-12.63,58.07
			c-3.33,6.83-8.07,13.58-15.19,16.23c-8.96,3.34-19.11-0.81-26.5-6.88c-7.07-5.81-12.79-13.78-14.04-22.85
			c-0.52-3.75-0.33-7.81-2.4-10.97c-1.5-2.29-3.95-3.74-6.05-5.49c-6.63-5.54-9.77-15.48-6.09-23.3s14.79-11.55,21.74-6.43
			c1.61,1.18,3.04,2.79,4.99,3.21c6.74-11.15,14.63-21.62,23.49-31.18c5.03-5.43,14.64-14.64,23.03-11.74
			C542.02,692.83,543.91,705.65,544.67,712.29z"/>
		<path class="st23" d="M656.62,1032.85c3.1-2.08,2.07-7.28-0.92-9.51c-2.98-2.24-6.96-2.45-10.66-2.89
			c-3.71-0.44-7.76-1.42-9.86-4.5c3.37,0.76,6.93,0.66,10.25-0.29c-2.45-6.39-9.38-10.1-16.16-11.01
			c-6.78-0.91-13.64,0.42-20.45,1.12c-4.66,0.48-9.36,0.66-14.04,0.56c-3.25-0.74-6.55-1.46-9.86-1.7
			c-22.01-11.78-45.3-21.1-68.52-30.32c-4.52-1.8-9.06-3.6-13.57-5.45c-5.62,14.15-11.01,28.4-15.93,42.81
			c29.86,10.4,60.46,18.69,91.48,24.81c2.68,1.79,5.55,3.35,8.39,4.87c6.2,3.32,12.4,6.64,18.59,9.95
			c8.35,4.47,18.08,9.05,26.91,5.63c1.82-0.71,3.52-1.74,5.41-2.26c2.96-0.83,6.18-0.37,9.14-1.23c2.96-0.86,5.71-4.06,4.35-6.82
			c3.43,0.71,7.22-1.34,8.51-4.59C660.96,1038.77,659.6,1034.68,656.62,1032.85z M587.27,1005.91c-0.17-0.1-0.35-0.19-0.52-0.29
			l7.75,0.7C592.08,1006.26,589.67,1006.12,587.27,1005.91z"/>
		<g>
			<path class="st25" d="M1158.53,860.38c-5.07-8.91-17.02-13.05-26.95-6.8l-147.64,92.79l-65.42-22.94l9.88-65.44l147.63-92.79
				c13.62-8.57,11.29-28.99-3.86-34.43c-56.44-20.23-121.27-15.26-175.97,19.13c-64.71,40.67-98.45,111.99-94.25,183.26
				l-550.4,327.23c-34.41,20.45-45.38,65.07-24.51,99.1c0.14,0.25,0.29,0.48,0.44,0.72c13.65,21.72,36.98,33.57,60.8,33.57
				c13.61,0,27.37-3.87,39.59-11.98l533.52-354.1c62.4,34.7,141.28,35.22,205.99-5.46c54.71-34.37,87.29-90.64,93.53-150.27
				C1161.36,867.64,1160.42,863.68,1158.53,860.38z M284.07,1290.52l91.66-55.49c12.82-7.77,29.51-3.81,37.48,8.88
				c2.86,4.54,4.22,9.59,4.22,14.59c0,8.98-4.4,17.77-12.47,23.04l-89.75,58.53c-12.86,8.39-30.1,4.62-38.27-8.38l-1.91-3.05
				C266.86,1315.64,270.94,1298.46,284.07,1290.52z"/>
			<path class="st26" d="M1160.91,871.98c-6.24,59.63-38.81,115.9-93.53,150.27c-64.71,40.68-143.6,40.16-205.99,5.46l-533.52,354.1
				c-12.22,8.11-25.98,11.98-39.59,11.98c-23.83,0-47.15-11.85-60.8-33.57c-0.15-0.25-0.3-0.48-0.44-0.72
				c3.76,1.2,7.45,3.58,10.87,5.64c26.89,16.12,61.68,13.86,90.67,1.93c29.01-11.92,53.56-32.34,77.83-52.19
				c130.26-106.51,266.79-205.37,408.62-295.89c9.54-6.09,19.59-12.32,30.87-13.37c8.54-0.78,17.03,1.5,25.42,3.32
				c61.54,13.46,127.98,2.94,182.37-28.84c35.2-20.57,65.12-49.93,86.85-84.4c7.21-11.44,12.93-23.17,17.97-35.33
				C1160.42,863.68,1161.36,867.64,1160.91,871.98z"/>
		</g>
		<path class="st27" d="M500.59,723.34c-4.08,8.71-7.14,17.9-9.08,27.32c-0.9-4.82-1.83-9.74-4.24-14.02
			c-2.41-4.27-6.6-7.86-11.49-8.2c-4.57-0.32-9.06,2.32-11.56,6.15s-3.17,8.67-2.48,13.2c0.52,3.45,1.78,7,0.74,10.34
			c-0.61,1.95-1.94,3.58-3.01,5.32c-1.81,2.96-2.86,6.38-3.05,9.84c-0.11,2.16,0.09,4.4-0.71,6.41c-0.8,2.01-3.09,3.67-5.08,2.83
			c-1.3-0.54-2.02-1.92-2.53-3.24c-2.31-6.02-2.25-12.72-4.43-18.79c-2-5.58-5.78-10.34-8.15-15.77
			c-6.68-15.34-1.15-33.13,5.88-48.31c1.83-3.95,3.78-7.89,6.59-11.21c4.39-5.19,10.57-8.52,16.86-11.1
			c6.84-2.8,13.98-4.85,21.15-6.66c11.67-2.96,24.01-5.32,35.63-2.18c13,3.51,28.84,19.29,12.97,29.89
			c-6.49,4.34-14.39,4.58-20.59,9.64C508.09,709.65,503.81,716.47,500.59,723.34z"/>
		<path class="st28" d="M543.39,1279.52c-0.19,18.76-1.35,37.5-2.52,56.22c-2.55,41.08-5.11,82.16-7.66,123.25
			c-0.08,1.25-0.17,2.56-0.85,3.61c-0.79,1.24-2.23,1.89-3.6,2.43c-8.03,3.15-16.69,4.66-25.31,4.42
			c-13.49-48.78-8.78-100.58-14.8-150.83c-1.79-14.98-4.55-29.86-5.64-44.91c-0.68-9.46-0.71-19-2.31-28.36
			c-2.4-13.99-8.23-27.11-13.49-40.29c-5.31-13.32-10.1-26.92-12.74-41.01c-4.21-22.57-2.38-46.13,4.63-67.96
			c4.68-14.59,17.94-51.32,35.9-53.69c21.57-2.85,23.71,44.38,26.71,58.16c6.05,27.81,11.36,55.79,15.21,83.99
			C541.24,1216.01,543.72,1247.76,543.39,1279.52z"/>
		<path class="st29" d="M603.73,702.08c-14.89-0.45-29.78-0.9-44.67-1.36c-3.15-0.1-6.98-0.17-9.8-1.81
			c-2.38-1.38-3.2-4.78-4.06-7.26c-2.58-7.41-5.15-14.85-8.68-21.86c-3.06-6.06-6.88-11.81-11.79-16.53
			c-4.22-4.05-9.73-8.37-15.85-8.53c-4.01-0.1-7.82,1.45-11.45,2.98c-5.44,2.29-10.88,4.58-16.3,6.9c-1.02-2.03-7.28-2.33-9.48-0.87
			c-1.41,0.94-4.02,3.19-4.3,4.75c-0.15,0.84,0.1,1.45,0.58,1.9c-1.46,0.65-2.92,1.3-4.37,1.96c-5.19,2.37-10.44,4.86-14.54,8.55
			c-3.32,2.99-5.75,6.64-8.1,10.27c-3.57,5.51-7.02,11.28-8.89,17.45c-0.6,1.97-1.34,20.48,0.3,20.22
			c22.11-3.49,44.12-6.72,66.4-9.23c13.65-1.54,27.38-2.89,41.13-2.54c8.33,0.21,16.61,1.05,24.93,1.49
			c9.58,0.51,19.19,0.49,28.8,0.46c2.59-0.01,5.31-0.04,7.57-1.17C603.4,706.74,604.92,704.11,603.73,702.08z"/>
		<path class="st29" d="M531.8,1029.8c-1.69-5.79-3.96-11.48-4.57-17.49c-0.62-6.17,0.54-12.35,1.49-18.48
			c8.1-52.2,0.52-106.73-21.5-154.75c-8.57-18.69-37-65.34-64.61-47.53c-6.61,4.26-9.76,12.13-12.51,19.49
			c-9.79,26.15-19.69,52.81-21.22,80.69c-3.01,54.92,26.7,109.18,16.62,163.25c-3.81,20.45-13.2,39.65-15.86,60.28
			c-1.95,15.18-0.19,30.55,0.32,45.84c1.29,38.81-5.53,77.37-12.33,115.6c-3.25,18.28-7.44,33.38-16.33,49.51
			c-9.69,17.6-19.24,35.28-28.61,53.05c-17.84,33.81-35.06,67.95-51.7,102.37c12.09,6.3,18.49,12.09,30.04,19.4
			c82.01-117.96,159.08-243.64,195.54-382.47C534.2,1089.54,540.21,1058.62,531.8,1029.8z"/>
		<path class="st30" d="M433.46,866.74c-7.14,37.88,1.8,78.52,24.19,109.89c10.35,14.5,24.45,27.6,41.94,30.97
			c3.22,0.62,6.74,0.86,9.62-0.7c2.55-1.38,4.22-3.96,5.53-6.55c6.25-12.35,6.69-26.77,6.18-40.61c-0.8-21.78-3.65-43.49-8.47-64.74
			c-3.41-15.01-6.52-35.19-16.43-47.69c-7.3-9.2-21.5-14.1-33.07-13.93C444.81,833.66,436.44,850.94,433.46,866.74z"/>
		<path class="st24" d="M740.6,623.04c-0.52-1.89-1.37-3.68-1.7-5.61c-0.53-3.03,0.26-6.18-0.29-9.21c-0.55-3.03-3.46-6.1-6.35-5.02
			c1.05-3.34-0.6-7.32-3.7-8.93c-3.11-1.61-7.31-0.68-9.44,2.1c-1.75-3.29-7.03-2.79-9.56-0.05c-2.53,2.74-3.15,6.67-3.96,10.32
			c-0.81,3.64-2.2,7.58-5.48,9.36c1.1-3.28,1.36-6.83,0.75-10.23c-6.61,1.79-11,8.31-12.59,14.96c-1.59,6.66-0.97,13.61-0.96,20.45
			c0.01,4.37,0.06,8.98-1.07,13.2c-3.86,14.31-12.7,26.86-19.97,39.6c-6.77,11.86-13.33,23.84-19.63,35.95
			c-9.92,19.07-19.94,38.35-33.93,54.66c-18.33,21.38-38.91,28.25-65.34,35.46c-21.01,5.73-41.65,12.79-61.76,21.14
			c-1.51,0.62-3.01,1.26-4.51,1.9c-22.33,9.52-55.46,29.06-36.06,58.17c5.22,7.83,14.43,12.35,23.74,13.69
			c9.32,1.33,18.81-0.18,27.97-2.31c38.69-8.99,73.99-28.79,107.14-50.67c14.27-9.42,28.45-19.42,39.4-32.55
			c7.11-8.52,12.71-18.17,18.04-27.91c9.39-17.16,18.03-34.72,25.89-52.63c3.43-7.82,7.3-15.77,9.95-23.9
			c3.05-9.36,6.68-18.48,9.84-27.76c1.83-5.37,3.86-10.66,6.09-15.87c1.12-2.61,2.28-5.19,3.49-7.75c0.55-1.16,1.44-2.44,1.78-3.67
			c0.03-0.09,0.03-0.16,0.05-0.24c0.68-0.98,1.36-1.97,2.02-2.96c3.93-5.83,7.86-11.66,11.79-17.49
			C737.56,641.38,743.11,632.17,740.6,623.04z"/>
		<path class="st30" d="M540.02,822.13c-18.47,5.33-36.63,11.69-54.39,19.06c-1.51,0.62-3.01,1.26-4.51,1.9
			c-22.33,9.52-55.46,29.06-36.06,58.17c5.22,7.83,14.43,12.35,23.74,13.69c9.32,1.33,18.81-0.18,27.97-2.31
			c21.11-4.9,41.21-13.03,60.5-22.96C551.15,867.27,545.78,844.64,540.02,822.13z"/>
		<path class="st31" d="M286.68,1508.67c-1.53-1.05-3.18-2.28-3.59-4.09c-0.35-1.58,0.35-3.18,1.03-4.65
			c1.42-3.06,2.85-6.12,4.27-9.18c2.08-4.46,4.21-9.01,7.57-12.59s8.24-6.13,13.12-5.46c0.51,10.82,13.7,18.86,23.55,14.34
			c1.79-0.82,3.46-1.97,5.38-2.42c5.22-1.23,10.3,3.21,12.22,8.21c1.8,4.66,1.36,8.82,1.41,13.56c0.05,4.51,2.38,9.39,4.41,13.34
			c1.19,2.3,2.59,4.57,4.63,6.17c3.81,2.99,9.03,3.13,13.84,3.65c4.82,0.51,10.19,1.95,12.48,6.21c0.73,1.36,1.07,3,0.54,4.45
			c-0.96,2.63-4.17,3.52-6.93,4.04c-10.67,2.01-21.41,4.02-32.27,4.02c-6.53,0-8.68-3.43-13.64-6.79
			c-5.35-3.63-10.69-7.26-16.03-10.9C308,1523.28,297.34,1515.98,286.68,1508.67z"/>
		<path class="st31" d="M505.43,1504.13c-1.86,0-3.91-0.08-5.27-1.35c-1.18-1.1-1.51-2.82-1.78-4.42c-0.56-3.33-1.11-6.66-1.67-9.99
			c-0.81-4.85-1.63-9.81-0.88-14.67c0.75-4.86,3.33-9.71,7.73-11.92c6.54,8.63,21.96,7.8,27.53-1.5c1.01-1.69,1.74-3.58,3.07-5.04
			c3.61-3.97,10.31-3.18,14.73-0.14c4.42,3.04,7.38,7.71,11.07,11.6c10.66,11.24,26.67,15.31,41.85,18.46
			c5.78,1.2,24.95,8.9,14.8,16.88c-6.23,4.9-24.31,1.76-31.59,1.82C558.48,1504.06,531.96,1504.14,505.43,1504.13z"/>
	</g>
	<g>
		<path class="st32" d="M1327.9,764.74c0-0.43,0-0.87,0-1.3"/>
		<g>
			<path class="st32" d="M1330.4,764.74c0-0.43,0-0.87,0-1.3c0.01-0.34-0.06-0.67-0.22-0.96c-0.1-0.31-0.27-0.58-0.52-0.8
				c-0.23-0.24-0.49-0.42-0.8-0.52c-0.3-0.16-0.62-0.23-0.96-0.22c-0.22,0.03-0.44,0.06-0.66,0.09c-0.42,0.12-0.79,0.33-1.1,0.64
				c-0.13,0.17-0.26,0.34-0.39,0.51c-0.23,0.39-0.34,0.81-0.34,1.26c0,0.43,0,0.87,0,1.3c-0.01,0.34,0.06,0.67,0.22,0.96
				c0.1,0.31,0.27,0.58,0.52,0.8c0.23,0.24,0.49,0.42,0.8,0.52c0.3,0.16,0.62,0.23,0.96,0.22c0.22-0.03,0.44-0.06,0.66-0.09
				c0.42-0.12,0.79-0.33,1.1-0.64c0.13-0.17,0.26-0.34,0.39-0.51C1330.28,765.61,1330.39,765.19,1330.4,764.74L1330.4,764.74z"/>
		</g>
	</g>
	<g>
		<path class="st26" d="M1298.35,604.09c0.07-1.52,0.1-3.05,0.1-4.59c0-4.85-0.34-9.62-0.98-14.28l-27.91-3.27
			c-0.91-3.84-2.1-7.57-3.56-11.17l20.86-18.84c-2.93-5.62-6.35-10.94-10.22-15.89l-25.82,11.13c-2.68-2.84-5.57-5.48-8.65-7.88
			l8.65-26.75c-5.29-3.38-10.9-6.29-16.78-8.68l-16.79,22.55c-3.7-1.11-7.53-1.94-11.45-2.48l-5.88-27.48
			c-1.52-0.07-3.05-0.1-4.59-0.1c-4.85,0-9.62,0.34-14.29,0.98l-3.27,27.92c-3.84,0.9-7.57,2.1-11.17,3.56l-18.84-20.86
			c-5.62,2.93-10.93,6.35-15.88,10.22L1143,544c-2.84,2.68-5.48,5.57-7.88,8.65l-26.75-8.65c-3.38,5.29-6.29,10.9-8.68,16.78
			l22.55,16.79c-1.11,3.7-1.94,7.53-2.48,11.45l-27.48,5.88c-0.07,1.52-0.1,3.05-0.1,4.58c0,4.85,0.34,9.62,0.98,14.29l27.92,3.27
			c0.9,3.84,2.1,7.57,3.56,11.17l-20.86,18.84c2.92,5.62,6.35,10.93,10.22,15.88l25.82-11.13c2.68,2.85,5.57,5.48,8.65,7.88
			l-8.65,26.75c5.28,3.38,10.89,6.3,16.78,8.68l16.8-22.55c3.7,1.11,7.53,1.94,11.45,2.48l5.88,27.48c1.52,0.07,3.05,0.1,4.58,0.1
			c4.85,0,9.62-0.34,14.29-0.98l3.27-27.92c3.84-0.9,7.57-2.1,11.17-3.56l18.84,20.86c5.62-2.93,10.93-6.35,15.88-10.22L1247.63,655
			c2.84-2.67,5.48-5.57,7.88-8.65l26.76,8.65c3.38-5.29,6.29-10.9,8.67-16.78l-22.55-16.79c1.11-3.7,1.95-7.53,2.48-11.45
			L1298.35,604.09z M1195.32,631.52c-17.68,0-32.02-14.33-32.02-32.02c0-17.68,14.33-32.02,32.02-32.02s32.02,14.34,32.02,32.02
			C1227.33,617.18,1213,631.52,1195.32,631.52z"/>
		<path class="st33" d="M1428.45,715.91c0.05-1.19,0.08-2.39,0.08-3.59c0-3.8-0.26-7.53-0.77-11.19l-21.87-2.56
			c-0.71-3.01-1.65-5.93-2.79-8.75l16.34-14.76c-2.29-4.4-4.98-8.57-8.01-12.45l-20.23,8.72c-2.1-2.23-4.36-4.29-6.78-6.17
			l6.78-20.96c-4.14-2.65-8.54-4.93-13.15-6.8l-13.15,17.67c-2.9-0.87-5.9-1.52-8.97-1.94l-4.61-21.53
			c-1.19-0.05-2.39-0.08-3.59-0.08c-3.8,0-7.54,0.26-11.19,0.77l-2.56,21.87c-3.01,0.71-5.93,1.65-8.75,2.79l-14.76-16.34
			c-4.4,2.29-8.57,4.98-12.44,8.01l8.72,20.22c-2.23,2.1-4.29,4.36-6.17,6.78l-20.96-6.78c-2.65,4.14-4.93,8.54-6.8,13.15
			l17.67,13.15c-0.87,2.9-1.52,5.9-1.94,8.97l-21.53,4.61c-0.05,1.19-0.08,2.39-0.08,3.59c0,3.8,0.26,7.54,0.77,11.19l21.87,2.56
			c0.71,3.01,1.65,5.93,2.79,8.75l-16.34,14.76c2.29,4.4,4.97,8.57,8.01,12.44l20.23-8.72c2.1,2.23,4.36,4.29,6.78,6.17l-6.78,20.96
			c4.14,2.65,8.53,4.93,13.14,6.8l13.16-17.67c2.9,0.87,5.9,1.52,8.97,1.94l4.61,21.53c1.19,0.05,2.39,0.08,3.59,0.08
			c3.8,0,7.54-0.26,11.19-0.77l2.56-21.87c3.01-0.71,5.93-1.64,8.75-2.79l14.76,16.34c4.4-2.29,8.57-4.98,12.44-8.01l-8.72-20.23
			c2.23-2.09,4.29-4.36,6.17-6.78l20.97,6.78c2.65-4.14,4.92-8.54,6.79-13.15l-17.67-13.15c0.87-2.9,1.53-5.9,1.95-8.97
			L1428.45,715.91z M1347.73,737.39c-13.85,0-25.08-11.23-25.08-25.08c0-13.85,11.23-25.08,25.08-25.08s25.08,11.23,25.08,25.08
			C1372.82,726.17,1361.59,737.39,1347.73,737.39z"/>
	</g>
	<g>
		<path class="st34" d="M1748.6,1445.57l-30.57-1.61c-10.48-0.55-18.53-9.5-17.98-19.98l4.82-91.4c1-18.92,17.15-33.45,36.07-32.45
			h0c18.92,1,33.45,17.15,32.45,36.07l-4.82,91.4C1768.03,1438.08,1759.08,1446.12,1748.6,1445.57z"/>
		<g>
			<path class="st35" d="M1684,1255.98l-20.9-1.1l3.82-72.31c0.17-3.19,2.89-5.64,6.08-5.47l9.34,0.49
				c3.19,0.17,5.64,2.89,5.47,6.08L1684,1255.98z"/>
			<path class="st21" d="M1689.38,1471.11l-54.25-2.86c-18.6-0.98-32.89-16.86-31.9-35.46l8.56-162.22
				c1.77-33.58,30.43-59.37,64.01-57.6h0c33.58,1.77,59.37,30.43,57.6,64.01l-8.56,162.22
				C1723.85,1457.81,1707.98,1472.09,1689.38,1471.11z"/>
		</g>
	</g>
</g>
</svg>
